<svg xmlns="http://www.w3.org/2000/svg" xmlns:xlink="http://www.w3.org/1999/xlink" width="1920" zoomAndPan="magnify" viewBox="0 0 1440 887.999991" height="1184" preserveAspectRatio="xMidYMid meet" version="1.0"><defs><g/><clipPath id="ae38a55330"><path d="M 266.960938 0 L 1154.875 0 L 1154.875 888 L 266.960938 888 Z M 266.960938 0 " clip-rule="nonzero"/></clipPath><clipPath id="2c39b83920"><path d="M 287.046875 674.855469 L 1025.046875 674.855469 L 1025.046875 712 L 287.046875 712 Z M 287.046875 674.855469 " clip-rule="nonzero"/></clipPath></defs><rect x="-144" width="1728" fill="#ffffff" y="-88.799999" height="1065.599989" fill-opacity="1"/><rect x="-144" width="1728" fill="#ffffff" y="-88.799999" height="1065.599989" fill-opacity="1"/><g clip-path="url(#ae38a55330)"><path fill="#fefefe" d="M 266.960938 0 L 1154.875 0 L 1154.875 887.914062 L 266.960938 887.914062 Z M 266.960938 0 " fill-opacity="1" fill-rule="nonzero"/></g><g fill="#ffb400" fill-opacity="1"><g transform="translate(271.611701, 602.042776)"><g><path d="M 297.15625 -82.578125 C 304.65625 -81.742188 307.675781 -79.65625 306.21875 -76.3125 C 304.757812 -72.976562 301.628906 -69.539062 296.828125 -66 C 292.035156 -62.457031 287.972656 -59.847656 284.640625 -58.171875 C 266.285156 -49.003906 246.890625 -42.851562 226.453125 -39.71875 C 206.023438 -36.59375 186.007812 -31.484375 166.40625 -24.390625 C 157.226562 -21.472656 148.257812 -17.820312 139.5 -13.4375 C 130.738281 -9.0625 122.191406 -4.582031 113.859375 0 C 108.847656 2.5 104.257812 5 100.09375 7.5 C 95.925781 10.007812 92.171875 13.554688 88.828125 18.140625 C 88.410156 18.554688 87.054688 20.015625 84.765625 22.515625 C 82.472656 25.023438 80.382812 27.320312 78.5 29.40625 C 76.625 31.488281 75.6875 32.320312 75.6875 31.90625 C 71.519531 36.070312 67.144531 39.828125 62.5625 43.171875 C 64.226562 42.328125 66.726562 40.863281 70.0625 38.78125 C 73.394531 36.695312 75.269531 36.070312 75.6875 36.90625 C 76.113281 39.40625 74.757812 41.800781 71.625 44.09375 C 68.5 46.394531 64.847656 48.273438 60.671875 49.734375 C 56.503906 51.191406 53.378906 52.128906 51.296875 52.546875 C 44.617188 53.378906 37.628906 52.648438 30.328125 50.359375 C 23.035156 48.066406 18.347656 43.164062 16.265625 35.65625 C 13.347656 25.226562 14.910156 14.800781 20.953125 4.375 C 27.003906 -6.050781 33.363281 -14.597656 40.03125 -21.265625 C 46.707031 -27.941406 53.800781 -32.738281 61.3125 -35.65625 C 65.894531 -37.738281 70.789062 -39.40625 76 -40.65625 C 81.21875 -41.914062 84.660156 -45.046875 86.328125 -50.046875 C 86.328125 -49.628906 86.535156 -52.023438 86.953125 -57.234375 C 87.367188 -62.453125 88.410156 -65.476562 90.078125 -66.3125 C 90.492188 -66.3125 90.179688 -64.117188 89.140625 -59.734375 C 88.097656 -55.359375 87.578125 -53.171875 87.578125 -53.171875 C 88.410156 -55.671875 89.140625 -58.171875 89.765625 -60.671875 C 90.390625 -63.179688 91.117188 -65.894531 91.953125 -68.8125 C 91.535156 -68.394531 90.910156 -68.394531 90.078125 -68.8125 C 89.242188 -71.726562 89.453125 -75.6875 90.703125 -80.6875 C 91.953125 -85.695312 93.515625 -90.804688 95.390625 -96.015625 C 97.273438 -101.234375 98.425781 -105.09375 98.84375 -107.59375 C 100.507812 -113.4375 102.175781 -119.273438 103.84375 -125.109375 C 105.507812 -130.953125 106.96875 -136.789062 108.21875 -142.625 C 111.144531 -153.46875 113.441406 -164 115.109375 -174.21875 C 116.773438 -184.4375 118.234375 -194.96875 119.484375 -205.8125 C 120.734375 -217.90625 122.921875 -229.6875 126.046875 -241.15625 C 129.179688 -252.625 132.207031 -263.988281 135.125 -275.25 C 135.539062 -276.5 136.789062 -280.671875 138.875 -287.765625 C 140.957031 -294.859375 143.144531 -301.738281 145.4375 -308.40625 C 147.738281 -315.082031 149.304688 -318.421875 150.140625 -318.421875 C 150.554688 -318.421875 150.347656 -316.957031 149.515625 -314.03125 C 148.679688 -311.113281 148.472656 -309.445312 148.890625 -309.03125 C 150.972656 -315.289062 152.847656 -321.546875 154.515625 -327.796875 C 156.179688 -334.054688 157.847656 -340.101562 159.515625 -345.9375 C 159.097656 -345.519531 158.160156 -343.851562 156.703125 -340.9375 C 155.242188 -338.019531 154.515625 -336.769531 154.515625 -337.1875 C 154.097656 -340.519531 155.035156 -344.6875 157.328125 -349.6875 C 159.628906 -354.695312 161.40625 -358.867188 162.65625 -362.203125 L 171.40625 -388.484375 C 174.738281 -397.242188 178.175781 -406 181.71875 -414.75 C 185.269531 -423.507812 189.757812 -431.851562 195.1875 -439.78125 C 202.269531 -449.789062 210.609375 -458.441406 220.203125 -465.734375 C 229.796875 -473.035156 240.847656 -476.894531 253.359375 -477.3125 C 262.117188 -478.144531 270.875 -477.207031 279.625 -474.5 C 288.382812 -471.789062 296.3125 -468.347656 303.40625 -464.171875 C 316.75 -457.085938 326.234375 -448.539062 331.859375 -438.53125 C 337.492188 -428.519531 340.726562 -416.84375 341.5625 -403.5 C 342.394531 -392.65625 340.625 -380.664062 336.25 -367.53125 C 331.875 -354.394531 326.035156 -342.09375 318.734375 -330.625 C 311.429688 -319.15625 303.398438 -310.082031 294.640625 -303.40625 C 289.640625 -299.65625 283.90625 -296.523438 277.4375 -294.015625 C 270.976562 -291.515625 264.617188 -290.472656 258.359375 -290.890625 C 254.191406 -291.304688 250.332031 -292.660156 246.78125 -294.953125 C 243.238281 -297.253906 242.722656 -300.695312 245.234375 -305.28125 C 245.234375 -305.28125 245.441406 -305.488281 245.859375 -305.90625 C 246.273438 -306.320312 246.691406 -306.738281 247.109375 -307.15625 L 246.484375 -307.15625 C 246.484375 -307.15625 247.628906 -309.550781 249.921875 -314.34375 C 252.210938 -319.144531 254.816406 -324.566406 257.734375 -330.609375 C 260.660156 -336.660156 263.476562 -341.875 266.1875 -346.25 C 268.894531 -350.632812 270.457031 -352.828125 270.875 -352.828125 C 271.289062 -352.828125 270.769531 -351.15625 269.3125 -347.8125 C 267.851562 -344.476562 266.5 -341.039062 265.25 -337.5 C 264 -333.957031 263.375 -331.976562 263.375 -331.5625 C 272.957031 -351.570312 280.878906 -371.796875 287.140625 -392.234375 C 288.390625 -395.992188 289.847656 -400.894531 291.515625 -406.9375 C 293.179688 -412.988281 294.328125 -419.035156 294.953125 -425.078125 C 295.585938 -431.128906 294.648438 -436.03125 292.140625 -439.78125 C 289.640625 -443.945312 286.195312 -445.613281 281.8125 -444.78125 C 277.4375 -443.945312 273.0625 -442.070312 268.6875 -439.15625 C 264.3125 -436.238281 260.867188 -433.523438 258.359375 -431.015625 C 249.609375 -422.265625 242.3125 -412.050781 236.46875 -400.375 C 230.625 -388.695312 225.410156 -377.226562 220.828125 -365.96875 C 224.578125 -374.300781 228.847656 -383.578125 233.640625 -393.796875 C 238.441406 -404.015625 244.28125 -413.503906 251.15625 -422.265625 C 258.039062 -431.023438 266.070312 -437.070312 275.25 -440.40625 C 281.507812 -442.90625 285.890625 -442.90625 288.390625 -440.40625 C 290.890625 -437.90625 292.140625 -434.359375 292.140625 -429.765625 C 292.140625 -425.179688 291.617188 -420.488281 290.578125 -415.6875 C 289.535156 -410.894531 288.597656 -407.457031 287.765625 -405.375 C 288.597656 -407.875 289.328125 -411.726562 289.953125 -416.9375 C 290.578125 -422.15625 290.679688 -427.265625 290.265625 -432.265625 C 289.847656 -437.273438 287.972656 -440.195312 284.640625 -441.03125 C 278.796875 -442.695312 272.847656 -440.503906 266.796875 -434.453125 C 260.753906 -428.410156 256.273438 -423.515625 253.359375 -419.765625 C 240.429688 -403.078125 230.003906 -384.410156 222.078125 -363.765625 C 214.148438 -343.128906 206.851562 -323.007812 200.1875 -303.40625 C 186.84375 -262.945312 175.164062 -221.863281 165.15625 -180.15625 C 155.144531 -138.457031 142.210938 -97.796875 126.359375 -58.171875 C 147.210938 -64.429688 168.273438 -69.957031 189.546875 -74.75 C 210.816406 -79.550781 232.296875 -82.578125 253.984375 -83.828125 C 261.078125 -84.242188 268.375 -84.347656 275.875 -84.140625 C 283.382812 -83.929688 290.476562 -83.410156 297.15625 -82.578125 Z M 165.15625 -354.703125 C 161.8125 -343.859375 158.472656 -333.015625 155.140625 -322.171875 C 151.804688 -311.328125 148.679688 -300.484375 145.765625 -289.640625 C 148.265625 -297.984375 150.972656 -305.90625 153.890625 -313.40625 C 156.804688 -320.914062 159.726562 -328.425781 162.65625 -335.9375 C 167.65625 -346.78125 172.65625 -358.5625 177.65625 -371.28125 C 182.664062 -384 188.296875 -396.613281 194.546875 -409.125 C 200.804688 -421.632812 208.421875 -432.476562 217.390625 -441.65625 C 226.359375 -450.832031 237.097656 -456.878906 249.609375 -459.796875 C 239.597656 -457.710938 230.734375 -453.851562 223.015625 -448.21875 C 215.304688 -442.59375 208.113281 -435.191406 201.4375 -426.015625 C 193.507812 -415.171875 186.625 -403.804688 180.78125 -391.921875 C 174.945312 -380.035156 169.738281 -367.628906 165.15625 -354.703125 Z M 198.3125 -305.90625 L 198.3125 -306.53125 C 195.8125 -299.019531 193.304688 -291.613281 190.796875 -284.3125 C 188.296875 -277.019531 186.003906 -269.625 183.921875 -262.125 L 198.3125 -305.28125 L 198.3125 -306.53125 Z M 61.9375 43.796875 L 62.5625 43.171875 C 62.144531 43.171875 61.9375 43.273438 61.9375 43.484375 C 61.9375 43.691406 61.9375 43.796875 61.9375 43.796875 Z M 61.9375 43.796875 "/></g></g></g><g fill="#ffb400" fill-opacity="1"><g transform="translate(583.773171, 602.042776)"><g><path d="M 464.796875 105.71875 C 466.890625 104.882812 470.4375 103.320312 475.4375 101.03125 C 480.445312 98.738281 485.242188 96.96875 489.828125 95.71875 C 494.410156 94.46875 496.910156 95.507812 497.328125 98.84375 C 498.160156 102.175781 497.015625 106.03125 493.890625 110.40625 C 490.765625 114.789062 487.21875 118.859375 483.25 122.609375 C 479.289062 126.367188 476.269531 129.289062 474.1875 131.375 C 463.34375 140.132812 451.25 146.179688 437.90625 149.515625 C 424.144531 153.265625 411.945312 152.84375 401.3125 148.25 C 390.675781 143.664062 380.976562 135.742188 372.21875 124.484375 C 360.125 108.640625 352.300781 92.164062 348.75 75.0625 C 345.207031 57.96875 344.476562 40.453125 346.5625 22.515625 C 348.65625 4.585938 352.203125 -13.132812 357.203125 -30.65625 C 357.203125 -30.65625 357.410156 -32.84375 357.828125 -37.21875 C 358.242188 -41.601562 359.078125 -44.210938 360.328125 -45.046875 C 360.328125 -44.628906 360.222656 -43.375 360.015625 -41.28125 C 359.804688 -39.195312 359.492188 -37.53125 359.078125 -36.28125 L 362.203125 -47.546875 C 362.203125 -47.128906 361.785156 -46.921875 360.953125 -46.921875 C 360.117188 -50.671875 360.953125 -55.671875 363.453125 -61.921875 C 365.960938 -68.179688 367.84375 -72.984375 369.09375 -76.328125 L 382.859375 -107.59375 C 387.023438 -116.769531 390.878906 -125.84375 394.421875 -134.8125 C 397.972656 -143.78125 401.414062 -152.851562 404.75 -162.03125 C 408.082031 -172.457031 412.351562 -182.566406 417.5625 -192.359375 C 422.78125 -202.160156 427.6875 -211.859375 432.28125 -221.453125 C 433.113281 -222.703125 434.78125 -226.035156 437.28125 -231.453125 C 439.78125 -236.878906 442.28125 -242.09375 444.78125 -247.09375 C 447.289062 -252.101562 448.960938 -254.398438 449.796875 -253.984375 C 449.796875 -253.984375 449.375 -252.734375 448.53125 -250.234375 C 447.695312 -247.734375 447.488281 -246.273438 447.90625 -245.859375 C 450 -251.273438 452.085938 -256.691406 454.171875 -262.109375 C 456.253906 -267.535156 458.128906 -272.957031 459.796875 -278.375 L 455.421875 -269.625 C 455.421875 -272.539062 456.359375 -276.289062 458.234375 -280.875 C 460.109375 -285.46875 461.359375 -289.847656 461.984375 -294.015625 C 462.609375 -298.191406 460.628906 -300.695312 456.046875 -301.53125 C 450.617188 -302.78125 444.566406 -300.585938 437.890625 -294.953125 C 431.222656 -289.328125 426.222656 -284.847656 422.890625 -281.515625 C 408.710938 -268.585938 395.890625 -254.820312 384.421875 -240.21875 C 372.953125 -225.625 361.796875 -210.40625 350.953125 -194.5625 C 345.523438 -187.050781 340.304688 -179.644531 335.296875 -172.34375 C 330.296875 -165.050781 324.460938 -158.066406 317.796875 -151.390625 C 313.617188 -147.640625 310.070312 -142.738281 307.15625 -136.6875 C 304.238281 -130.644531 301.113281 -125.117188 297.78125 -120.109375 C 292.351562 -110.929688 287.03125 -101.859375 281.8125 -92.890625 C 276.601562 -83.929688 271.289062 -75.070312 265.875 -66.3125 C 262.113281 -59.632812 257.941406 -53.0625 253.359375 -46.59375 C 248.773438 -40.132812 245.226562 -33.363281 242.71875 -26.28125 C 240.632812 -20.4375 238.34375 -15.21875 235.84375 -10.625 C 233.34375 -6.039062 230.109375 -3.539062 226.140625 -3.125 C 222.179688 -2.707031 216.863281 -5.421875 210.1875 -11.265625 C 201.019531 -20.429688 195.804688 -30.75 194.546875 -42.21875 C 193.296875 -53.695312 193.925781 -65.273438 196.4375 -76.953125 C 203.519531 -112.398438 215.398438 -147.117188 232.078125 -181.109375 C 248.765625 -215.097656 266.078125 -247.3125 284.015625 -277.75 C 291.941406 -291.101562 299.238281 -304.972656 305.90625 -319.359375 C 312.582031 -333.742188 318.628906 -348.023438 324.046875 -362.203125 C 324.878906 -364.710938 326.023438 -367.84375 327.484375 -371.59375 C 328.953125 -375.34375 328.429688 -377.632812 325.921875 -378.46875 C 323.003906 -379.71875 318.519531 -378.363281 312.46875 -374.40625 C 306.425781 -370.445312 302.363281 -367.632812 300.28125 -365.96875 C 286.101562 -355.539062 273.171875 -343.441406 261.484375 -329.671875 C 249.804688 -315.910156 238.546875 -301.941406 227.703125 -287.765625 C 216.867188 -273.585938 206.34375 -258.988281 196.125 -243.96875 C 185.90625 -228.957031 175.789062 -213.738281 165.78125 -198.3125 C 155.351562 -182.457031 145.03125 -166.394531 134.8125 -150.125 C 124.59375 -133.863281 114.476562 -117.601562 104.46875 -101.34375 C 99.882812 -93.414062 95.191406 -85.59375 90.390625 -77.875 C 85.597656 -70.164062 81.535156 -62.140625 78.203125 -53.796875 C 74.859375 -45.867188 71.726562 -37.941406 68.8125 -30.015625 C 65.894531 -22.097656 62.769531 -13.96875 59.4375 -5.625 C 57.757812 -0.625 55.984375 5.207031 54.109375 11.875 C 52.234375 18.550781 49.628906 24.1875 46.296875 28.78125 C 42.117188 34.195312 36.585938 36.90625 29.703125 36.90625 C 22.828125 36.90625 16.679688 34.820312 11.265625 30.65625 C 6.671875 26.894531 3.539062 22.195312 1.875 16.5625 C 0.207031 10.9375 -0.414062 5.207031 0 -0.625 C 0.832031 -17.726562 4.375 -35.242188 10.625 -53.171875 C 16.882812 -71.109375 23.351562 -87.789062 30.03125 -103.21875 C 36.695312 -119.070312 43.367188 -134.609375 50.046875 -149.828125 C 56.722656 -165.046875 62.976562 -180.582031 68.8125 -196.4375 C 80.90625 -228.96875 94.457031 -261.179688 109.46875 -293.078125 C 124.488281 -324.984375 136.585938 -357.828125 145.765625 -391.609375 L 145.765625 -385.359375 L 149.515625 -408.5 C 150.765625 -416.007812 150.660156 -422.679688 149.203125 -428.515625 C 147.742188 -434.359375 142.21875 -436.238281 132.625 -434.15625 C 125.945312 -432.488281 119.6875 -429.359375 113.84375 -424.765625 C 108.007812 -420.179688 102.800781 -415.175781 98.21875 -409.75 C 86.957031 -398.070312 77.15625 -384.832031 68.8125 -370.03125 C 60.46875 -355.226562 53.378906 -340.109375 47.546875 -324.671875 C 46.296875 -321.753906 45.253906 -318.207031 44.421875 -314.03125 C 43.585938 -309.863281 42.960938 -306.738281 42.546875 -304.65625 C 42.117188 -302.15625 42.007812 -299.753906 42.21875 -297.453125 C 42.4375 -295.160156 41.5 -292.972656 39.40625 -290.890625 C 35.65625 -287.972656 31.898438 -287.347656 28.140625 -289.015625 C 24.390625 -290.679688 21.265625 -293.1875 18.765625 -296.53125 C 13.765625 -304.03125 11.265625 -313.097656 11.265625 -323.734375 C 11.265625 -334.367188 12.304688 -343.859375 14.390625 -352.203125 C 16.472656 -359.703125 19.804688 -366.476562 24.390625 -372.53125 C 28.984375 -378.582031 32.738281 -384.941406 35.65625 -391.609375 C 36.488281 -393.691406 37.113281 -395.984375 37.53125 -398.484375 C 37.945312 -400.992188 38.988281 -403.5 40.65625 -406 L 46.921875 -414.765625 C 53.585938 -422.265625 60.675781 -429.351562 68.1875 -436.03125 C 82.78125 -448.125 98.835938 -456.878906 116.359375 -462.296875 C 126.367188 -465.640625 136.484375 -467 146.703125 -466.375 C 156.921875 -465.75 165.988281 -461.265625 173.90625 -452.921875 C 178.914062 -447.492188 182.878906 -440.609375 185.796875 -432.265625 C 188.710938 -423.929688 191.003906 -416.21875 192.671875 -409.125 C 194.765625 -399.53125 194.765625 -389.101562 192.671875 -377.84375 C 190.585938 -366.582031 188.085938 -356.367188 185.171875 -347.203125 C 182.253906 -338.023438 179.4375 -328.847656 176.71875 -319.671875 C 174.007812 -310.492188 170.988281 -301.316406 167.65625 -292.140625 C 164.738281 -283.390625 161.710938 -274.738281 158.578125 -266.1875 C 155.453125 -257.632812 152.222656 -248.976562 148.890625 -240.21875 C 146.390625 -233.550781 144.300781 -226.878906 142.625 -220.203125 C 140.957031 -213.523438 139.082031 -206.644531 137 -199.5625 C 153.269531 -225 170.367188 -250.4375 188.296875 -275.875 C 206.234375 -301.320312 225.628906 -325.097656 246.484375 -347.203125 C 250.648438 -351.367188 255.753906 -357.203125 261.796875 -364.703125 C 267.847656 -372.210938 274.625 -379.722656 282.125 -387.234375 C 289.632812 -394.742188 297.351562 -400.894531 305.28125 -405.6875 C 313.207031 -410.476562 321.128906 -412.769531 329.046875 -412.5625 C 336.972656 -412.351562 344.273438 -408.082031 350.953125 -399.75 C 358.867188 -390.15625 363.972656 -378.679688 366.265625 -365.328125 C 368.566406 -351.984375 367.421875 -339.472656 362.828125 -327.796875 C 358.660156 -317.367188 353.132812 -307.253906 346.25 -297.453125 C 339.375 -287.660156 333.640625 -277.550781 329.046875 -267.125 C 316.953125 -239.175781 304.335938 -211.4375 291.203125 -183.90625 C 278.066406 -156.382812 267.117188 -127.820312 258.359375 -98.21875 C 269.617188 -117.820312 281.191406 -137.210938 293.078125 -156.390625 C 304.960938 -175.578125 317.375 -194.347656 330.3125 -212.703125 C 327.382812 -208.523438 324.148438 -204.140625 320.609375 -199.546875 C 317.066406 -194.960938 313.832031 -190.378906 310.90625 -185.796875 C 316.75 -194.554688 321.859375 -202.269531 326.234375 -208.9375 C 330.617188 -215.613281 333.4375 -219.785156 334.6875 -221.453125 C 345.53125 -236.460938 356.894531 -251.160156 368.78125 -265.546875 C 380.664062 -279.941406 393.695312 -293.394531 407.875 -305.90625 C 415.382812 -313 424.039062 -319.773438 433.84375 -326.234375 C 443.644531 -332.703125 453.960938 -335.9375 464.796875 -335.9375 C 477.734375 -336.351562 488.160156 -331.765625 496.078125 -322.171875 C 504.003906 -312.578125 509.007812 -301.941406 511.09375 -290.265625 C 514.425781 -272.335938 513.382812 -254.71875 507.96875 -237.40625 C 502.550781 -220.101562 495.460938 -203.316406 486.703125 -187.046875 C 477.941406 -170.785156 469.804688 -154.9375 462.296875 -139.5 C 463.960938 -142.425781 465.425781 -143.890625 466.6875 -143.890625 C 466.6875 -143.890625 465.953125 -141.800781 464.484375 -137.625 C 463.023438 -133.457031 461.148438 -128.554688 458.859375 -122.921875 C 456.566406 -117.296875 454.484375 -112.1875 452.609375 -107.59375 C 450.734375 -103.007812 449.585938 -100.300781 449.171875 -99.46875 C 445.410156 -90.707031 441.757812 -81.945312 438.21875 -73.1875 C 434.675781 -64.4375 431.023438 -55.890625 427.265625 -47.546875 C 420.597656 -31.273438 414.238281 -14.90625 408.1875 1.5625 C 402.144531 18.039062 397.242188 34.828125 393.484375 51.921875 C 392.234375 57.347656 390.984375 63.601562 389.734375 70.6875 C 388.484375 77.78125 388.585938 84.554688 390.046875 91.015625 C 391.503906 97.484375 395.15625 102.382812 401 105.71875 C 409.75 110.3125 420.378906 112.191406 432.890625 111.359375 C 445.410156 110.523438 456.046875 108.644531 464.796875 105.71875 Z M 381.609375 -81.953125 C 376.597656 -71.523438 372.632812 -61.203125 369.71875 -50.984375 C 366.800781 -40.765625 363.671875 -30.441406 360.328125 -20.015625 C 363.671875 -29.609375 367.21875 -38.992188 370.96875 -48.171875 C 374.71875 -57.347656 378.679688 -66.519531 382.859375 -75.6875 C 387.859375 -86.53125 393.066406 -97.894531 398.484375 -109.78125 C 403.910156 -121.675781 407.664062 -133.253906 409.75 -144.515625 C 411.414062 -148.265625 411.414062 -150.347656 409.75 -150.765625 C 406.832031 -147.015625 404.539062 -141.59375 402.875 -134.5 C 401.207031 -127.40625 399.328125 -121.566406 397.234375 -116.984375 C 394.734375 -111.140625 392.234375 -105.296875 389.734375 -99.453125 C 387.234375 -93.617188 384.523438 -87.785156 381.609375 -81.953125 Z M 104.46875 -269 C 99.050781 -256.070312 93.734375 -243.25 88.515625 -230.53125 C 83.304688 -217.8125 78.195312 -204.773438 73.1875 -191.421875 C 79.03125 -205.609375 84.867188 -219.582031 90.703125 -233.34375 C 96.546875 -247.101562 102.800781 -260.65625 109.46875 -274 C 116.5625 -288.175781 122.503906 -302.5625 127.296875 -317.15625 C 132.097656 -331.757812 136.375 -346.359375 140.125 -360.953125 C 138.457031 -355.953125 136.6875 -351.050781 134.8125 -346.25 C 132.9375 -341.457031 130.957031 -336.769531 128.875 -332.1875 C 124.695312 -321.757812 120.734375 -311.226562 116.984375 -300.59375 C 113.234375 -289.957031 109.0625 -279.425781 104.46875 -269 Z M 304.65625 -176.40625 C 301.738281 -171.40625 297.671875 -164.628906 292.453125 -156.078125 C 287.242188 -147.523438 282.550781 -139.910156 278.375 -133.234375 C 274.207031 -126.566406 271.707031 -123.234375 270.875 -123.234375 C 270.875 -123.234375 274.519531 -128.863281 281.8125 -140.125 C 289.113281 -151.382812 296.726562 -163.476562 304.65625 -176.40625 Z M 399.75 -295.90625 C 395.570312 -292.144531 391.609375 -288.28125 387.859375 -284.3125 C 384.109375 -280.351562 380.351562 -276.082031 376.59375 -271.5 Z M 355.328125 0 C 356.578125 -2.5 356.578125 -3.957031 355.328125 -4.375 C 353.660156 -1.875 353.660156 -0.414062 355.328125 0 Z M 370.34375 -264 L 372.21875 -265.875 L 372.84375 -267.125 L 373.46875 -267.75 C 373.46875 -267.332031 373.363281 -267.125 373.15625 -267.125 C 372.945312 -267.125 372.84375 -267.125 372.84375 -267.125 L 375.34375 -269.625 L 376.59375 -271.5 L 375.34375 -270.25 C 374.925781 -269.832031 374.40625 -269.207031 373.78125 -268.375 C 373.15625 -267.539062 372.425781 -266.5 371.59375 -265.25 L 371.59375 -265.875 Z M 305.90625 -178.296875 L 308.40625 -181.421875 L 308.40625 -182.046875 Z M 304.65625 -176.40625 C 305.488281 -177.25 305.90625 -177.878906 305.90625 -178.296875 Z M 374.71875 -269.625 C 375.132812 -269.625 375.34375 -269.726562 375.34375 -269.9375 C 375.34375 -270.144531 375.34375 -270.25 375.34375 -270.25 Z M 374.71875 -269.625 "/></g></g></g><g fill="#000000" fill-opacity="1"><g transform="translate(294.271514, 595.971094)"><g><path d="M 297.15625 -82.578125 C 304.65625 -81.742188 307.675781 -79.65625 306.21875 -76.3125 C 304.757812 -72.976562 301.628906 -69.539062 296.828125 -66 C 292.035156 -62.457031 287.972656 -59.847656 284.640625 -58.171875 C 266.285156 -49.003906 246.890625 -42.851562 226.453125 -39.71875 C 206.023438 -36.59375 186.007812 -31.484375 166.40625 -24.390625 C 157.226562 -21.472656 148.257812 -17.820312 139.5 -13.4375 C 130.738281 -9.0625 122.191406 -4.582031 113.859375 0 C 108.847656 2.5 104.257812 5 100.09375 7.5 C 95.925781 10.007812 92.171875 13.554688 88.828125 18.140625 C 88.410156 18.554688 87.054688 20.015625 84.765625 22.515625 C 82.472656 25.023438 80.382812 27.320312 78.5 29.40625 C 76.625 31.488281 75.6875 32.320312 75.6875 31.90625 C 71.519531 36.070312 67.144531 39.828125 62.5625 43.171875 C 64.226562 42.328125 66.726562 40.863281 70.0625 38.78125 C 73.394531 36.695312 75.269531 36.070312 75.6875 36.90625 C 76.113281 39.40625 74.757812 41.800781 71.625 44.09375 C 68.5 46.394531 64.847656 48.273438 60.671875 49.734375 C 56.503906 51.191406 53.378906 52.128906 51.296875 52.546875 C 44.617188 53.378906 37.628906 52.648438 30.328125 50.359375 C 23.035156 48.066406 18.347656 43.164062 16.265625 35.65625 C 13.347656 25.226562 14.910156 14.800781 20.953125 4.375 C 27.003906 -6.050781 33.363281 -14.597656 40.03125 -21.265625 C 46.707031 -27.941406 53.800781 -32.738281 61.3125 -35.65625 C 65.894531 -37.738281 70.789062 -39.40625 76 -40.65625 C 81.21875 -41.914062 84.660156 -45.046875 86.328125 -50.046875 C 86.328125 -49.628906 86.535156 -52.023438 86.953125 -57.234375 C 87.367188 -62.453125 88.410156 -65.476562 90.078125 -66.3125 C 90.492188 -66.3125 90.179688 -64.117188 89.140625 -59.734375 C 88.097656 -55.359375 87.578125 -53.171875 87.578125 -53.171875 C 88.410156 -55.671875 89.140625 -58.171875 89.765625 -60.671875 C 90.390625 -63.179688 91.117188 -65.894531 91.953125 -68.8125 C 91.535156 -68.394531 90.910156 -68.394531 90.078125 -68.8125 C 89.242188 -71.726562 89.453125 -75.6875 90.703125 -80.6875 C 91.953125 -85.695312 93.515625 -90.804688 95.390625 -96.015625 C 97.273438 -101.234375 98.425781 -105.09375 98.84375 -107.59375 C 100.507812 -113.4375 102.175781 -119.273438 103.84375 -125.109375 C 105.507812 -130.953125 106.96875 -136.789062 108.21875 -142.625 C 111.144531 -153.46875 113.441406 -164 115.109375 -174.21875 C 116.773438 -184.4375 118.234375 -194.96875 119.484375 -205.8125 C 120.734375 -217.90625 122.921875 -229.6875 126.046875 -241.15625 C 129.179688 -252.625 132.207031 -263.988281 135.125 -275.25 C 135.539062 -276.5 136.789062 -280.671875 138.875 -287.765625 C 140.957031 -294.859375 143.144531 -301.738281 145.4375 -308.40625 C 147.738281 -315.082031 149.304688 -318.421875 150.140625 -318.421875 C 150.554688 -318.421875 150.347656 -316.957031 149.515625 -314.03125 C 148.679688 -311.113281 148.472656 -309.445312 148.890625 -309.03125 C 150.972656 -315.289062 152.847656 -321.546875 154.515625 -327.796875 C 156.179688 -334.054688 157.847656 -340.101562 159.515625 -345.9375 C 159.097656 -345.519531 158.160156 -343.851562 156.703125 -340.9375 C 155.242188 -338.019531 154.515625 -336.769531 154.515625 -337.1875 C 154.097656 -340.519531 155.035156 -344.6875 157.328125 -349.6875 C 159.628906 -354.695312 161.40625 -358.867188 162.65625 -362.203125 L 171.40625 -388.484375 C 174.738281 -397.242188 178.175781 -406 181.71875 -414.75 C 185.269531 -423.507812 189.757812 -431.851562 195.1875 -439.78125 C 202.269531 -449.789062 210.609375 -458.441406 220.203125 -465.734375 C 229.796875 -473.035156 240.847656 -476.894531 253.359375 -477.3125 C 262.117188 -478.144531 270.875 -477.207031 279.625 -474.5 C 288.382812 -471.789062 296.3125 -468.347656 303.40625 -464.171875 C 316.75 -457.085938 326.234375 -448.539062 331.859375 -438.53125 C 337.492188 -428.519531 340.726562 -416.84375 341.5625 -403.5 C 342.394531 -392.65625 340.625 -380.664062 336.25 -367.53125 C 331.875 -354.394531 326.035156 -342.09375 318.734375 -330.625 C 311.429688 -319.15625 303.398438 -310.082031 294.640625 -303.40625 C 289.640625 -299.65625 283.90625 -296.523438 277.4375 -294.015625 C 270.976562 -291.515625 264.617188 -290.472656 258.359375 -290.890625 C 254.191406 -291.304688 250.332031 -292.660156 246.78125 -294.953125 C 243.238281 -297.253906 242.722656 -300.695312 245.234375 -305.28125 C 245.234375 -305.28125 245.441406 -305.488281 245.859375 -305.90625 C 246.273438 -306.320312 246.691406 -306.738281 247.109375 -307.15625 L 246.484375 -307.15625 C 246.484375 -307.15625 247.628906 -309.550781 249.921875 -314.34375 C 252.210938 -319.144531 254.816406 -324.566406 257.734375 -330.609375 C 260.660156 -336.660156 263.476562 -341.875 266.1875 -346.25 C 268.894531 -350.632812 270.457031 -352.828125 270.875 -352.828125 C 271.289062 -352.828125 270.769531 -351.15625 269.3125 -347.8125 C 267.851562 -344.476562 266.5 -341.039062 265.25 -337.5 C 264 -333.957031 263.375 -331.976562 263.375 -331.5625 C 272.957031 -351.570312 280.878906 -371.796875 287.140625 -392.234375 C 288.390625 -395.992188 289.847656 -400.894531 291.515625 -406.9375 C 293.179688 -412.988281 294.328125 -419.035156 294.953125 -425.078125 C 295.585938 -431.128906 294.648438 -436.03125 292.140625 -439.78125 C 289.640625 -443.945312 286.195312 -445.613281 281.8125 -444.78125 C 277.4375 -443.945312 273.0625 -442.070312 268.6875 -439.15625 C 264.3125 -436.238281 260.867188 -433.523438 258.359375 -431.015625 C 249.609375 -422.265625 242.3125 -412.050781 236.46875 -400.375 C 230.625 -388.695312 225.410156 -377.226562 220.828125 -365.96875 C 224.578125 -374.300781 228.847656 -383.578125 233.640625 -393.796875 C 238.441406 -404.015625 244.28125 -413.503906 251.15625 -422.265625 C 258.039062 -431.023438 266.070312 -437.070312 275.25 -440.40625 C 281.507812 -442.90625 285.890625 -442.90625 288.390625 -440.40625 C 290.890625 -437.90625 292.140625 -434.359375 292.140625 -429.765625 C 292.140625 -425.179688 291.617188 -420.488281 290.578125 -415.6875 C 289.535156 -410.894531 288.597656 -407.457031 287.765625 -405.375 C 288.597656 -407.875 289.328125 -411.726562 289.953125 -416.9375 C 290.578125 -422.15625 290.679688 -427.265625 290.265625 -432.265625 C 289.847656 -437.273438 287.972656 -440.195312 284.640625 -441.03125 C 278.796875 -442.695312 272.847656 -440.503906 266.796875 -434.453125 C 260.753906 -428.410156 256.273438 -423.515625 253.359375 -419.765625 C 240.429688 -403.078125 230.003906 -384.410156 222.078125 -363.765625 C 214.148438 -343.128906 206.851562 -323.007812 200.1875 -303.40625 C 186.84375 -262.945312 175.164062 -221.863281 165.15625 -180.15625 C 155.144531 -138.457031 142.210938 -97.796875 126.359375 -58.171875 C 147.210938 -64.429688 168.273438 -69.957031 189.546875 -74.75 C 210.816406 -79.550781 232.296875 -82.578125 253.984375 -83.828125 C 261.078125 -84.242188 268.375 -84.347656 275.875 -84.140625 C 283.382812 -83.929688 290.476562 -83.410156 297.15625 -82.578125 Z M 165.15625 -354.703125 C 161.8125 -343.859375 158.472656 -333.015625 155.140625 -322.171875 C 151.804688 -311.328125 148.679688 -300.484375 145.765625 -289.640625 C 148.265625 -297.984375 150.972656 -305.90625 153.890625 -313.40625 C 156.804688 -320.914062 159.726562 -328.425781 162.65625 -335.9375 C 167.65625 -346.78125 172.65625 -358.5625 177.65625 -371.28125 C 182.664062 -384 188.296875 -396.613281 194.546875 -409.125 C 200.804688 -421.632812 208.421875 -432.476562 217.390625 -441.65625 C 226.359375 -450.832031 237.097656 -456.878906 249.609375 -459.796875 C 239.597656 -457.710938 230.734375 -453.851562 223.015625 -448.21875 C 215.304688 -442.59375 208.113281 -435.191406 201.4375 -426.015625 C 193.507812 -415.171875 186.625 -403.804688 180.78125 -391.921875 C 174.945312 -380.035156 169.738281 -367.628906 165.15625 -354.703125 Z M 198.3125 -305.90625 L 198.3125 -306.53125 C 195.8125 -299.019531 193.304688 -291.613281 190.796875 -284.3125 C 188.296875 -277.019531 186.003906 -269.625 183.921875 -262.125 L 198.3125 -305.28125 L 198.3125 -306.53125 Z M 61.9375 43.796875 L 62.5625 43.171875 C 62.144531 43.171875 61.9375 43.273438 61.9375 43.484375 C 61.9375 43.691406 61.9375 43.796875 61.9375 43.796875 Z M 61.9375 43.796875 "/></g></g></g><g fill="#000000" fill-opacity="1"><g transform="translate(606.432984, 595.971094)"><g><path d="M 464.796875 105.71875 C 466.890625 104.882812 470.4375 103.320312 475.4375 101.03125 C 480.445312 98.738281 485.242188 96.96875 489.828125 95.71875 C 494.410156 94.46875 496.910156 95.507812 497.328125 98.84375 C 498.160156 102.175781 497.015625 106.03125 493.890625 110.40625 C 490.765625 114.789062 487.21875 118.859375 483.25 122.609375 C 479.289062 126.367188 476.269531 129.289062 474.1875 131.375 C 463.34375 140.132812 451.25 146.179688 437.90625 149.515625 C 424.144531 153.265625 411.945312 152.84375 401.3125 148.25 C 390.675781 143.664062 380.976562 135.742188 372.21875 124.484375 C 360.125 108.640625 352.300781 92.164062 348.75 75.0625 C 345.207031 57.96875 344.476562 40.453125 346.5625 22.515625 C 348.65625 4.585938 352.203125 -13.132812 357.203125 -30.65625 C 357.203125 -30.65625 357.410156 -32.84375 357.828125 -37.21875 C 358.242188 -41.601562 359.078125 -44.210938 360.328125 -45.046875 C 360.328125 -44.628906 360.222656 -43.375 360.015625 -41.28125 C 359.804688 -39.195312 359.492188 -37.53125 359.078125 -36.28125 L 362.203125 -47.546875 C 362.203125 -47.128906 361.785156 -46.921875 360.953125 -46.921875 C 360.117188 -50.671875 360.953125 -55.671875 363.453125 -61.921875 C 365.960938 -68.179688 367.84375 -72.984375 369.09375 -76.328125 L 382.859375 -107.59375 C 387.023438 -116.769531 390.878906 -125.84375 394.421875 -134.8125 C 397.972656 -143.78125 401.414062 -152.851562 404.75 -162.03125 C 408.082031 -172.457031 412.351562 -182.566406 417.5625 -192.359375 C 422.78125 -202.160156 427.6875 -211.859375 432.28125 -221.453125 C 433.113281 -222.703125 434.78125 -226.035156 437.28125 -231.453125 C 439.78125 -236.878906 442.28125 -242.09375 444.78125 -247.09375 C 447.289062 -252.101562 448.960938 -254.398438 449.796875 -253.984375 C 449.796875 -253.984375 449.375 -252.734375 448.53125 -250.234375 C 447.695312 -247.734375 447.488281 -246.273438 447.90625 -245.859375 C 450 -251.273438 452.085938 -256.691406 454.171875 -262.109375 C 456.253906 -267.535156 458.128906 -272.957031 459.796875 -278.375 L 455.421875 -269.625 C 455.421875 -272.539062 456.359375 -276.289062 458.234375 -280.875 C 460.109375 -285.46875 461.359375 -289.847656 461.984375 -294.015625 C 462.609375 -298.191406 460.628906 -300.695312 456.046875 -301.53125 C 450.617188 -302.78125 444.566406 -300.585938 437.890625 -294.953125 C 431.222656 -289.328125 426.222656 -284.847656 422.890625 -281.515625 C 408.710938 -268.585938 395.890625 -254.820312 384.421875 -240.21875 C 372.953125 -225.625 361.796875 -210.40625 350.953125 -194.5625 C 345.523438 -187.050781 340.304688 -179.644531 335.296875 -172.34375 C 330.296875 -165.050781 324.460938 -158.066406 317.796875 -151.390625 C 313.617188 -147.640625 310.070312 -142.738281 307.15625 -136.6875 C 304.238281 -130.644531 301.113281 -125.117188 297.78125 -120.109375 C 292.351562 -110.929688 287.03125 -101.859375 281.8125 -92.890625 C 276.601562 -83.929688 271.289062 -75.070312 265.875 -66.3125 C 262.113281 -59.632812 257.941406 -53.0625 253.359375 -46.59375 C 248.773438 -40.132812 245.226562 -33.363281 242.71875 -26.28125 C 240.632812 -20.4375 238.34375 -15.21875 235.84375 -10.625 C 233.34375 -6.039062 230.109375 -3.539062 226.140625 -3.125 C 222.179688 -2.707031 216.863281 -5.421875 210.1875 -11.265625 C 201.019531 -20.429688 195.804688 -30.75 194.546875 -42.21875 C 193.296875 -53.695312 193.925781 -65.273438 196.4375 -76.953125 C 203.519531 -112.398438 215.398438 -147.117188 232.078125 -181.109375 C 248.765625 -215.097656 266.078125 -247.3125 284.015625 -277.75 C 291.941406 -291.101562 299.238281 -304.972656 305.90625 -319.359375 C 312.582031 -333.742188 318.628906 -348.023438 324.046875 -362.203125 C 324.878906 -364.710938 326.023438 -367.84375 327.484375 -371.59375 C 328.953125 -375.34375 328.429688 -377.632812 325.921875 -378.46875 C 323.003906 -379.71875 318.519531 -378.363281 312.46875 -374.40625 C 306.425781 -370.445312 302.363281 -367.632812 300.28125 -365.96875 C 286.101562 -355.539062 273.171875 -343.441406 261.484375 -329.671875 C 249.804688 -315.910156 238.546875 -301.941406 227.703125 -287.765625 C 216.867188 -273.585938 206.34375 -258.988281 196.125 -243.96875 C 185.90625 -228.957031 175.789062 -213.738281 165.78125 -198.3125 C 155.351562 -182.457031 145.03125 -166.394531 134.8125 -150.125 C 124.59375 -133.863281 114.476562 -117.601562 104.46875 -101.34375 C 99.882812 -93.414062 95.191406 -85.59375 90.390625 -77.875 C 85.597656 -70.164062 81.535156 -62.140625 78.203125 -53.796875 C 74.859375 -45.867188 71.726562 -37.941406 68.8125 -30.015625 C 65.894531 -22.097656 62.769531 -13.96875 59.4375 -5.625 C 57.757812 -0.625 55.984375 5.207031 54.109375 11.875 C 52.234375 18.550781 49.628906 24.1875 46.296875 28.78125 C 42.117188 34.195312 36.585938 36.90625 29.703125 36.90625 C 22.828125 36.90625 16.679688 34.820312 11.265625 30.65625 C 6.671875 26.894531 3.539062 22.195312 1.875 16.5625 C 0.207031 10.9375 -0.414062 5.207031 0 -0.625 C 0.832031 -17.726562 4.375 -35.242188 10.625 -53.171875 C 16.882812 -71.109375 23.351562 -87.789062 30.03125 -103.21875 C 36.695312 -119.070312 43.367188 -134.609375 50.046875 -149.828125 C 56.722656 -165.046875 62.976562 -180.582031 68.8125 -196.4375 C 80.90625 -228.96875 94.457031 -261.179688 109.46875 -293.078125 C 124.488281 -324.984375 136.585938 -357.828125 145.765625 -391.609375 L 145.765625 -385.359375 L 149.515625 -408.5 C 150.765625 -416.007812 150.660156 -422.679688 149.203125 -428.515625 C 147.742188 -434.359375 142.21875 -436.238281 132.625 -434.15625 C 125.945312 -432.488281 119.6875 -429.359375 113.84375 -424.765625 C 108.007812 -420.179688 102.800781 -415.175781 98.21875 -409.75 C 86.957031 -398.070312 77.15625 -384.832031 68.8125 -370.03125 C 60.46875 -355.226562 53.378906 -340.109375 47.546875 -324.671875 C 46.296875 -321.753906 45.253906 -318.207031 44.421875 -314.03125 C 43.585938 -309.863281 42.960938 -306.738281 42.546875 -304.65625 C 42.117188 -302.15625 42.007812 -299.753906 42.21875 -297.453125 C 42.4375 -295.160156 41.5 -292.972656 39.40625 -290.890625 C 35.65625 -287.972656 31.898438 -287.347656 28.140625 -289.015625 C 24.390625 -290.679688 21.265625 -293.1875 18.765625 -296.53125 C 13.765625 -304.03125 11.265625 -313.097656 11.265625 -323.734375 C 11.265625 -334.367188 12.304688 -343.859375 14.390625 -352.203125 C 16.472656 -359.703125 19.804688 -366.476562 24.390625 -372.53125 C 28.984375 -378.582031 32.738281 -384.941406 35.65625 -391.609375 C 36.488281 -393.691406 37.113281 -395.984375 37.53125 -398.484375 C 37.945312 -400.992188 38.988281 -403.5 40.65625 -406 L 46.921875 -414.765625 C 53.585938 -422.265625 60.675781 -429.351562 68.1875 -436.03125 C 82.78125 -448.125 98.835938 -456.878906 116.359375 -462.296875 C 126.367188 -465.640625 136.484375 -467 146.703125 -466.375 C 156.921875 -465.75 165.988281 -461.265625 173.90625 -452.921875 C 178.914062 -447.492188 182.878906 -440.609375 185.796875 -432.265625 C 188.710938 -423.929688 191.003906 -416.21875 192.671875 -409.125 C 194.765625 -399.53125 194.765625 -389.101562 192.671875 -377.84375 C 190.585938 -366.582031 188.085938 -356.367188 185.171875 -347.203125 C 182.253906 -338.023438 179.4375 -328.847656 176.71875 -319.671875 C 174.007812 -310.492188 170.988281 -301.316406 167.65625 -292.140625 C 164.738281 -283.390625 161.710938 -274.738281 158.578125 -266.1875 C 155.453125 -257.632812 152.222656 -248.976562 148.890625 -240.21875 C 146.390625 -233.550781 144.300781 -226.878906 142.625 -220.203125 C 140.957031 -213.523438 139.082031 -206.644531 137 -199.5625 C 153.269531 -225 170.367188 -250.4375 188.296875 -275.875 C 206.234375 -301.320312 225.628906 -325.097656 246.484375 -347.203125 C 250.648438 -351.367188 255.753906 -357.203125 261.796875 -364.703125 C 267.847656 -372.210938 274.625 -379.722656 282.125 -387.234375 C 289.632812 -394.742188 297.351562 -400.894531 305.28125 -405.6875 C 313.207031 -410.476562 321.128906 -412.769531 329.046875 -412.5625 C 336.972656 -412.351562 344.273438 -408.082031 350.953125 -399.75 C 358.867188 -390.15625 363.972656 -378.679688 366.265625 -365.328125 C 368.566406 -351.984375 367.421875 -339.472656 362.828125 -327.796875 C 358.660156 -317.367188 353.132812 -307.253906 346.25 -297.453125 C 339.375 -287.660156 333.640625 -277.550781 329.046875 -267.125 C 316.953125 -239.175781 304.335938 -211.4375 291.203125 -183.90625 C 278.066406 -156.382812 267.117188 -127.820312 258.359375 -98.21875 C 269.617188 -117.820312 281.191406 -137.210938 293.078125 -156.390625 C 304.960938 -175.578125 317.375 -194.347656 330.3125 -212.703125 C 327.382812 -208.523438 324.148438 -204.140625 320.609375 -199.546875 C 317.066406 -194.960938 313.832031 -190.378906 310.90625 -185.796875 C 316.75 -194.554688 321.859375 -202.269531 326.234375 -208.9375 C 330.617188 -215.613281 333.4375 -219.785156 334.6875 -221.453125 C 345.53125 -236.460938 356.894531 -251.160156 368.78125 -265.546875 C 380.664062 -279.941406 393.695312 -293.394531 407.875 -305.90625 C 415.382812 -313 424.039062 -319.773438 433.84375 -326.234375 C 443.644531 -332.703125 453.960938 -335.9375 464.796875 -335.9375 C 477.734375 -336.351562 488.160156 -331.765625 496.078125 -322.171875 C 504.003906 -312.578125 509.007812 -301.941406 511.09375 -290.265625 C 514.425781 -272.335938 513.382812 -254.71875 507.96875 -237.40625 C 502.550781 -220.101562 495.460938 -203.316406 486.703125 -187.046875 C 477.941406 -170.785156 469.804688 -154.9375 462.296875 -139.5 C 463.960938 -142.425781 465.425781 -143.890625 466.6875 -143.890625 C 466.6875 -143.890625 465.953125 -141.800781 464.484375 -137.625 C 463.023438 -133.457031 461.148438 -128.554688 458.859375 -122.921875 C 456.566406 -117.296875 454.484375 -112.1875 452.609375 -107.59375 C 450.734375 -103.007812 449.585938 -100.300781 449.171875 -99.46875 C 445.410156 -90.707031 441.757812 -81.945312 438.21875 -73.1875 C 434.675781 -64.4375 431.023438 -55.890625 427.265625 -47.546875 C 420.597656 -31.273438 414.238281 -14.90625 408.1875 1.5625 C 402.144531 18.039062 397.242188 34.828125 393.484375 51.921875 C 392.234375 57.347656 390.984375 63.601562 389.734375 70.6875 C 388.484375 77.78125 388.585938 84.554688 390.046875 91.015625 C 391.503906 97.484375 395.15625 102.382812 401 105.71875 C 409.75 110.3125 420.378906 112.191406 432.890625 111.359375 C 445.410156 110.523438 456.046875 108.644531 464.796875 105.71875 Z M 381.609375 -81.953125 C 376.597656 -71.523438 372.632812 -61.203125 369.71875 -50.984375 C 366.800781 -40.765625 363.671875 -30.441406 360.328125 -20.015625 C 363.671875 -29.609375 367.21875 -38.992188 370.96875 -48.171875 C 374.71875 -57.347656 378.679688 -66.519531 382.859375 -75.6875 C 387.859375 -86.53125 393.066406 -97.894531 398.484375 -109.78125 C 403.910156 -121.675781 407.664062 -133.253906 409.75 -144.515625 C 411.414062 -148.265625 411.414062 -150.347656 409.75 -150.765625 C 406.832031 -147.015625 404.539062 -141.59375 402.875 -134.5 C 401.207031 -127.40625 399.328125 -121.566406 397.234375 -116.984375 C 394.734375 -111.140625 392.234375 -105.296875 389.734375 -99.453125 C 387.234375 -93.617188 384.523438 -87.785156 381.609375 -81.953125 Z M 104.46875 -269 C 99.050781 -256.070312 93.734375 -243.25 88.515625 -230.53125 C 83.304688 -217.8125 78.195312 -204.773438 73.1875 -191.421875 C 79.03125 -205.609375 84.867188 -219.582031 90.703125 -233.34375 C 96.546875 -247.101562 102.800781 -260.65625 109.46875 -274 C 116.5625 -288.175781 122.503906 -302.5625 127.296875 -317.15625 C 132.097656 -331.757812 136.375 -346.359375 140.125 -360.953125 C 138.457031 -355.953125 136.6875 -351.050781 134.8125 -346.25 C 132.9375 -341.457031 130.957031 -336.769531 128.875 -332.1875 C 124.695312 -321.757812 120.734375 -311.226562 116.984375 -300.59375 C 113.234375 -289.957031 109.0625 -279.425781 104.46875 -269 Z M 304.65625 -176.40625 C 301.738281 -171.40625 297.671875 -164.628906 292.453125 -156.078125 C 287.242188 -147.523438 282.550781 -139.910156 278.375 -133.234375 C 274.207031 -126.566406 271.707031 -123.234375 270.875 -123.234375 C 270.875 -123.234375 274.519531 -128.863281 281.8125 -140.125 C 289.113281 -151.382812 296.726562 -163.476562 304.65625 -176.40625 Z M 399.75 -295.90625 C 395.570312 -292.144531 391.609375 -288.28125 387.859375 -284.3125 C 384.109375 -280.351562 380.351562 -276.082031 376.59375 -271.5 Z M 355.328125 0 C 356.578125 -2.5 356.578125 -3.957031 355.328125 -4.375 C 353.660156 -1.875 353.660156 -0.414062 355.328125 0 Z M 370.34375 -264 L 372.21875 -265.875 L 372.84375 -267.125 L 373.46875 -267.75 C 373.46875 -267.332031 373.363281 -267.125 373.15625 -267.125 C 372.945312 -267.125 372.84375 -267.125 372.84375 -267.125 L 375.34375 -269.625 L 376.59375 -271.5 L 375.34375 -270.25 C 374.925781 -269.832031 374.40625 -269.207031 373.78125 -268.375 C 373.15625 -267.539062 372.425781 -266.5 371.59375 -265.25 L 371.59375 -265.875 Z M 305.90625 -178.296875 L 308.40625 -181.421875 L 308.40625 -182.046875 Z M 304.65625 -176.40625 C 305.488281 -177.25 305.90625 -177.878906 305.90625 -178.296875 Z M 374.71875 -269.625 C 375.132812 -269.625 375.34375 -269.726562 375.34375 -269.9375 C 375.34375 -270.144531 375.34375 -270.25 375.34375 -270.25 Z M 374.71875 -269.625 "/></g></g></g><g clip-path="url(#2c39b83920)"><path fill="#000000" d="M 562.367188 708.675781 C 562.769531 708.117188 564.027344 710.339844 565.894531 709.925781 C 564.757812 709.761719 563.402344 710.367188 562.265625 710.367188 C 562.199219 709.359375 562.234375 708.863281 562.367188 708.675781 Z M 620.9375 707.554688 C 622.074219 707.71875 622.667969 707.773438 623.050781 708.710938 L 623.050781 709.59375 Z M 774.378906 705.34375 C 773.40625 706.449219 777.085938 706.671875 776.167969 707.941406 C 772.8125 706.117188 775.464844 711.085938 771.726562 709.59375 C 770.863281 705.84375 772 706.671875 774.378906 705.34375 Z M 542.1875 705.234375 C 542.023438 706.394531 543.054688 707.882812 540.671875 707.882812 Z M 862.820312 705.015625 C 865.742188 705.953125 862.496094 706.558594 862.117188 707.496094 C 858.054688 707.496094 862.441406 705.953125 862.820312 705.015625 Z M 989.414062 703.453125 C 990.15625 703.71875 990.980469 704.074219 991.316406 703.800781 L 989.683594 704.960938 L 988.070312 703.691406 C 988.035156 703.027344 988.691406 703.191406 989.414062 703.453125 Z M 589.597656 703.304688 L 590.628906 706.558594 L 590.03125 706.503906 Z M 870.9375 702.585938 C 871.371094 703.523438 871.371094 704.132812 872.183594 704.738281 L 870.613281 706.007812 Z M 928.847656 702.035156 L 928.847656 703.246094 C 928.480469 703.578125 928.042969 703.246094 927.65625 703.578125 C 925.988281 702.917969 927.167969 701.980469 928.847656 702.035156 Z M 901.898438 701.648438 L 903.953125 701.980469 L 904.765625 702.640625 Z M 614.558594 701.144531 C 614.050781 701.039062 613.605469 701.453125 613.089844 703.027344 C 613.738281 704.628906 615.46875 702.917969 616.390625 702.363281 C 615.632812 701.867188 615.066406 701.246094 614.558594 701.144531 Z M 1006.351562 700.210938 L 1005.980469 701.097656 L 1003.542969 702.308594 Z M 908.339844 699.273438 L 908.824219 702.035156 L 907.203125 701.425781 Z M 1000.246094 699.109375 L 998.617188 702.144531 L 998.246094 701.207031 C 995.320312 699.714844 990.492188 703.746094 989.195312 699.714844 C 991.6875 700.984375 996.5625 699.273438 1000.246094 699.109375 Z M 895.636719 698.714844 C 896.351562 698.820312 897.296875 699.054688 898.214844 699.164062 C 897.730469 699.328125 897.351562 699.550781 897.351562 700.046875 L 894.480469 699.054688 C 894.453125 698.640625 894.929688 698.613281 895.636719 698.714844 Z M 945.464844 697.730469 C 945.078125 698.613281 945.515625 700.210938 943.078125 699.496094 L 943.078125 700.765625 L 940.976562 698.558594 Z M 742.121094 697.453125 L 743.3125 704.40625 C 741.960938 703.746094 740.933594 703.359375 738.984375 706.230469 Z M 955.324219 697.289062 C 954.9375 697.617188 957.425781 700.765625 959.476562 701.757812 L 959.914062 701.425781 C 962.132812 702.75 960.183594 703.691406 959.425781 704.296875 C 959.425781 703.46875 960.621094 702.695312 959.425781 702.363281 C 958.234375 702.035156 957.8125 702.917969 957.425781 703.25 C 956.398438 701.398438 955.675781 699.382812 955.324219 697.289062 Z M 862.929688 696.84375 C 863.414062 697.5625 862.546875 698.445312 861.355469 698.722656 C 860.167969 699 859.300781 698.390625 859.679688 697.453125 Z M 683.019531 696.789062 C 684.15625 697.839844 685.128906 698.28125 685.832031 697.453125 L 685.832031 697.34375 C 685.007812 696.773438 683.992188 696.574219 683.019531 696.789062 Z M 964.625 695.355469 C 962.183594 697.121094 963.867188 698.390625 962.671875 699.9375 C 959.761719 697.730469 963.007812 696.515625 964.625 695.355469 Z M 913.210938 695.3125 C 913.546875 695.203125 913.722656 695.273438 913.585938 695.851562 C 913.011719 695.769531 912.429688 695.769531 911.855469 695.851562 C 912.371094 695.714844 912.871094 695.425781 913.210938 695.3125 Z M 975.675781 695.246094 L 971.234375 697.949219 L 970.425781 697.949219 Z M 1025.410156 694.914062 C 1025.242188 695.300781 1025.410156 697.671875 1024.332031 697.34375 C 1024.332031 697.949219 1023.574219 695.300781 1025.410156 694.914062 Z M 953.960938 694.472656 L 954.988281 694.75 L 953.589844 695.410156 Z M 910.503906 693.753906 C 911.164062 693.808594 911.476562 694.363281 911.097656 695.90625 L 911.421875 695.90625 C 909.582031 696.183594 907.796875 696.84375 907.796875 694.582031 C 908.824219 694.140625 909.839844 693.699219 910.503906 693.753906 Z M 958.03125 693.3125 C 957.273438 693.921875 957.695312 694.859375 957.695312 695.519531 L 954.988281 694.75 Z M 972.78125 692.859375 C 972.984375 692.816406 973.101562 692.953125 973.183594 693.148438 L 971.941406 693.644531 C 972.308594 693.121094 972.578125 692.898438 972.78125 692.859375 Z M 977.238281 692.816406 C 981.78125 692.597656 982.214844 695.410156 977.726562 695.632812 C 980.164062 694.417969 978.484375 693.753906 977.238281 692.816406 Z M 815.785156 692.484375 L 815.621094 698.058594 L 814.808594 698.058594 Z M 975.824219 692.097656 C 974.699219 692.871094 974.09375 693.921875 974.429688 692.816406 C 973.183594 695.078125 973.503906 693.808594 973.183594 693.148438 Z M 681.070312 690.554688 L 679.769531 692.761719 L 679.230469 692.042969 Z M 980.921875 690.441406 C 981.476562 690.570312 982.03125 690.644531 982.605469 690.664062 L 982.972656 691.105469 C 978.871094 691.601562 981.359375 692.042969 980.921875 690.441406 Z M 945.953125 690.386719 L 946.273438 691.328125 L 944.273438 691.710938 L 944.542969 691.710938 C 943.9375 692.515625 942.84375 692.769531 941.953125 692.320312 C 941.296875 692.429688 941.347656 692.210938 941.734375 691.710938 L 944.273438 691.710938 Z M 922.625 690.277344 C 924.628906 694.417969 925.871094 701.703125 923.167969 703.191406 C 922.710938 702.667969 922.113281 702.285156 921.453125 702.097656 C 919.550781 701.558594 917.582031 702.691406 917.050781 704.628906 C 916.238281 704.019531 917.429688 703.082031 917.429688 702.476562 L 914.183594 703.691406 C 913.640625 699.660156 919.757812 698.777344 918.457031 695.960938 C 920.136719 697.230469 919.378906 699.109375 923.003906 698.226562 C 925.433594 696.40625 920.460938 694.472656 919.59375 693.203125 C 922.625 692.097656 922.625 691.214844 922.625 690.277344 Z M 940.808594 689.835938 C 942.488281 689.890625 941.953125 691.328125 941.464844 691.878906 C 939.867188 691.773438 938.300781 691.417969 936.804688 690.828125 C 938.21875 690.949219 939.613281 690.601562 940.808594 689.835938 Z M 934.148438 689.558594 C 934.988281 690.082031 935.878906 690.507812 936.804688 690.828125 C 935.8125 690.851562 934.835938 691 933.878906 691.269531 C 937.613281 692.871094 930.582031 694.085938 935.996094 694.085938 C 933.996094 694.96875 934.855469 696.789062 931.558594 696.789062 C 930.09375 694.140625 932.851562 693.257812 933.878906 690.996094 C 932.164062 691.117188 930.414062 690.949219 928.75 690.5 Z M 951.859375 689.171875 C 952.800781 689.695312 953.488281 690.628906 953.691406 691.710938 L 952.664062 691.601562 Z M 932.214844 688.125 C 932.414062 687.519531 933.558594 688.734375 934.148438 689.558594 C 933.457031 689.140625 932.820312 688.660156 932.214844 688.125 Z M 975.1875 687.847656 C 974.363281 688.457031 976.429688 688.789062 976.851562 689.726562 L 974.429688 690.941406 C 973.117188 689.339844 972.695312 688.402344 975.1875 687.847656 Z M 960.03125 687.792969 C 960.03125 689.0625 961.648438 689.726562 962.519531 690.332031 L 960.722656 691.160156 C 960.621094 690.113281 960.03125 688.621094 960.03125 687.792969 Z M 883.925781 687.738281 C 883.601562 688.347656 882.683594 688.347656 881.65625 688.125 C 882.410156 688.730469 882.683594 689.230469 883.925781 688.730469 Z M 925.214844 687.574219 C 926.160156 688.941406 927.402344 690.058594 928.847656 690.828125 L 927.773438 690.828125 L 928.09375 690.71875 L 922.679688 690.058594 C 922.84375 689.339844 923.277344 688.511719 925.214844 687.574219 Z M 878.644531 686.730469 C 878.554688 686.691406 878.894531 686.855469 879.921875 687.40625 L 879.921875 687.296875 C 879.246094 687.019531 878.730469 686.773438 878.644531 686.730469 Z M 916.617188 686.359375 L 916.238281 688.566406 L 914.996094 687.574219 Z M 922.734375 686.136719 L 921.976562 688.621094 L 919.972656 689.503906 Z M 905.957031 685.808594 C 905.144531 685.808594 905.578125 686.523438 905.578125 687.351562 C 904.980469 686.691406 904.128906 686.328125 903.25 686.359375 Z M 891.613281 685.808594 L 893.238281 685.808594 C 893.238281 685.808594 893.5625 686.195312 893.5625 686.195312 C 892.941406 685.941406 892.28125 685.8125 891.613281 685.808594 Z M 951.742188 685.144531 L 950.175781 686.964844 L 948.929688 687.90625 Z M 889.984375 684.941406 C 890.417969 684.800781 890.652344 684.953125 890.367188 685.640625 C 889.933594 684.703125 890.042969 688.179688 889.230469 687.519531 C 885.578125 688.429688 888.683594 685.367188 889.984375 684.941406 Z M 853.671875 684.097656 C 855.113281 684.355469 856.484375 684.941406 857.675781 685.808594 L 857.113281 686.476562 L 856.65625 686.492188 L 856.0625 686.316406 C 855.347656 685.863281 854.511719 684.953125 853.671875 684.097656 Z M 943.632812 683.101562 C 942.320312 683.984375 944.8125 685.308594 943.632812 686.855469 C 942.355469 685.59375 940.503906 685.132812 938.804688 685.640625 C 940.152344 684.363281 941.816406 683.484375 943.632812 683.101562 Z M 288.398438 681.667969 L 289.101562 685.253906 C 288.667969 684.425781 287.585938 684.8125 287.046875 684.980469 Z M 291.160156 679.847656 L 293.648438 680.894531 L 292.78125 681.667969 Z M 443.140625 679.570312 C 442.652344 680.289062 442.164062 681.003906 444.003906 680.289062 Z M 772.4375 677.203125 C 773.042969 677.167969 774.5 679.488281 775.839844 681.058594 C 774.910156 680.402344 773.730469 680.21875 772.648438 680.5625 L 772.160156 678.136719 C 772.132812 677.488281 772.238281 677.214844 772.4375 677.203125 Z M 619.910156 675.101562 C 622.777344 675.484375 620.9375 678.355469 621.695312 680.234375 C 625.972656 679.515625 621.371094 672.5625 626.785156 676.039062 C 626.082031 676.425781 624.835938 676.699219 625.320312 677.195312 C 627.484375 677.914062 631.277344 687.683594 633.441406 685.808594 L 632.089844 684.261719 C 636.144531 682.164062 641.398438 691.105469 642.152344 685.585938 L 641.828125 682.9375 C 648.648438 686.578125 644.753906 681.945312 651.679688 685.144531 L 651.679688 685.585938 C 654.710938 685.144531 656.28125 688.457031 657.851562 684.261719 L 656.824219 683.65625 C 659.480469 683.535156 662.144531 683.664062 664.777344 684.039062 C 665.210938 683.710938 667.105469 683.101562 667.59375 684.039062 C 668.027344 680.507812 676.6875 682.882812 678.417969 682.882812 C 675.386719 683.324219 676.738281 684.867188 677.605469 686.359375 C 679.339844 683.488281 680.582031 683.214844 683.019531 685.367188 C 683.558594 681.003906 684.101562 676.203125 688.972656 676.203125 C 688.214844 676.808594 687.078125 677.140625 687.511719 678.082031 C 687.941406 679.019531 689.132812 678.023438 689.515625 677.75 C 690 678.632812 688.375 679.292969 688.917969 680.839844 C 692.597656 676.753906 694.871094 680.675781 699.742188 679.347656 C 697.957031 680.617188 699.253906 681.503906 699.742188 683.046875 C 700.230469 678.082031 706.183594 687.574219 704.507812 681.058594 C 713.488281 685.367188 728.050781 682.273438 731.570312 686.578125 C 732.648438 688.402344 735.355469 685.53125 736.980469 685.53125 L 736.980469 687.683594 C 741.6875 683.875 740.660156 686.359375 746.074219 682.550781 C 743.746094 685.089844 744.664062 686.304688 746.832031 688.402344 L 750.671875 684.039062 L 751.269531 687.40625 C 752.769531 686.496094 754.640625 686.496094 756.140625 687.40625 C 755.328125 687.40625 755.816406 687.683594 755.816406 688.289062 C 756.789062 683.65625 763.390625 684.480469 764.476562 682.273438 C 765.828125 686.964844 768.804688 681.335938 769.886719 685.640625 C 770.46875 685.011719 771.167969 684.503906 771.945312 684.152344 C 771.242188 682.109375 771.023438 679.847656 772.484375 680.894531 L 772.8125 680.894531 L 773.351562 683.597656 C 774.671875 683.109375 776.058594 682.828125 777.464844 682.773438 C 776.910156 682.390625 776.417969 681.925781 776.003906 681.390625 C 776.652344 681.832031 777.195312 682.328125 777.789062 682.773438 L 781.199219 682.773438 C 786.285156 687.078125 793.429688 677.695312 798.84375 683.542969 C 797.976562 682.9375 796.734375 682.660156 796.355469 683.542969 C 801.277344 683.542969 805.988281 687.574219 809.128906 685.695312 L 809.128906 683.214844 C 812.148438 682.222656 815.320312 681.789062 818.492188 681.945312 L 818.492188 679.128906 C 822.875 680.289062 831.914062 676.3125 834.511719 682.164062 C 835.648438 680.011719 840.304688 683.101562 842.738281 682.496094 L 843.226562 684.703125 L 849.777344 684.390625 L 849.015625 683.820312 C 849.042969 683.796875 849.066406 683.773438 849.089844 683.753906 C 849.769531 683.15625 850.625 682.894531 851.453125 682.957031 C 852.28125 683.019531 853.085938 683.402344 853.671875 684.097656 L 850.203125 684.394531 L 854.707031 686.550781 L 856.65625 686.492188 L 857.011719 686.59375 L 857.113281 686.476562 L 861.433594 686.34375 C 863.632812 685.976562 865.769531 685.558594 867.800781 685.808594 L 867.800781 686.359375 L 873.210938 685.144531 C 871.640625 687.019531 874.402344 683.875 876.023438 684.480469 C 878.339844 683.734375 880.867188 684.230469 882.734375 685.808594 L 886.632812 686.027344 C 882.410156 687.1875 886.632812 689.0625 886.632812 691.546875 L 889.070312 689.726562 C 889.828125 690.941406 887.390625 691.546875 889.070312 692.210938 C 890.640625 690.996094 895.1875 691.328125 896.753906 688.898438 C 896.476562 688.175781 896.007812 687.546875 895.402344 687.078125 C 895.652344 686.777344 895.890625 686.464844 896.105469 686.136719 C 898.917969 686.855469 897.890625 685.75 897.890625 684.648438 C 900.867188 688.730469 902.871094 686.25 905.035156 690.941406 C 901.84375 685.585938 912.234375 691.382812 910.449219 686.359375 C 912.613281 690.441406 912.125 686.691406 913.425781 690.113281 C 910.125 688.84375 906.550781 692.210938 903.683594 693.699219 L 906.226562 696.238281 C 904.0625 700.542969 900.328125 694.195312 898.648438 695.578125 C 898.730469 695.527344 898.816406 695.488281 898.902344 695.449219 C 900.164062 694.898438 901.628906 695.5 902.167969 696.789062 L 901.679688 693.367188 C 897.945312 691.769531 894.75 694.195312 891.9375 695.6875 C 894.425781 696.957031 888.691406 697.507812 890.421875 700.046875 L 892.480469 700.046875 C 893.289062 701.261719 891.289062 702.199219 890.097656 703.082031 C 883.875 700.210938 872.074219 701.703125 869.964844 698.941406 C 871.578125 699.628906 873.429688 699.398438 874.835938 698.335938 L 871.96875 696.734375 C 874.347656 696.789062 876.132812 699.882812 879.761719 698.941406 C 879.488281 696.789062 882.085938 694.03125 879.488281 690.886719 C 872.832031 687.132812 873.535156 696.128906 865.363281 694.859375 C 864.550781 695.464844 867.257812 691.4375 862.820312 692.375 C 857.574219 693.675781 853.566406 698 852.589844 703.414062 C 854.917969 702.199219 859.789062 699.714844 860.328125 703.136719 C 857.894531 704.351562 853.886719 704.960938 853.5625 707.167969 C 851.34375 702.804688 858 706.226562 855.023438 702.804688 C 853.347656 702.804688 852.589844 704.019531 851.832031 704.628906 C 852.96875 703.082031 850.480469 701.867188 850.046875 700.929688 C 844.742188 700.597656 841.546875 698.667969 836.136719 698.058594 C 835.675781 697.199219 835.46875 696.222656 835.539062 695.246094 C 832.726562 696.183594 828.449219 701.8125 829.371094 704.296875 C 826.121094 704.296875 826.015625 702.421875 823.199219 703.359375 C 827.476562 707.113281 822.390625 702.75 821.738281 706.503906 C 818.871094 706.78125 820.816406 704.628906 819.574219 703.691406 C 818.714844 704.328125 818.085938 705.242188 817.789062 706.285156 C 816.164062 703.359375 821.46875 699 819.628906 695.578125 C 817.363281 693.140625 814.820312 690.992188 812.050781 689.171875 C 810.398438 695.914062 810.398438 702.964844 812.050781 709.707031 C 811.78125 711.914062 809.507812 707.222656 808.261719 706.945312 C 804.851562 703.191406 802.6875 709.429688 799.765625 707.882812 L 802.363281 705.898438 C 802.363281 704.960938 797.707031 705.898438 796.949219 707.167969 C 796.894531 705.898438 799.546875 700.929688 798.25 699.382812 C 792.800781 699.171875 788.09375 703.246094 787.421875 708.765625 L 795.8125 705.289062 C 795.8125 708.382812 789.589844 707.882812 789.914062 711.859375 L 782.445312 710.421875 C 783.363281 710.367188 786.34375 709.652344 785.257812 707.882812 C 782.011719 707.882812 783.582031 707.277344 781.472656 705.730469 C 786.6875 700.160156 791.332031 694.058594 795.328125 687.519531 L 791.320312 689.449219 L 790.402344 687.574219 C 784.988281 689.835938 779.898438 701.703125 778.65625 705.125 C 775.730469 704.1875 777.03125 697.671875 777.789062 696.402344 C 772.050781 695.851562 771.726562 705.511719 765.992188 704.296875 L 768.101562 705.84375 C 766.695312 705.84375 761.769531 704.574219 762.257812 705.84375 C 761.171875 704.296875 760.253906 699.828125 761.609375 698.777344 L 756.195312 704.738281 C 757.007812 704.132812 756.679688 698.832031 757.007812 697.894531 C 754.949219 697.617188 753.273438 703.855469 754.515625 704.792969 C 750.671875 700.765625 751.59375 702.917969 748.453125 698.28125 C 747.265625 698.613281 748.402344 703.910156 749.210938 704.519531 C 747.539062 705.503906 745.476562 705.503906 743.800781 704.519531 C 748.292969 702.363281 745.425781 692.652344 746.398438 688.675781 L 736.277344 704.132812 C 736.753906 702.039062 737.117188 699.917969 737.359375 697.785156 C 736.277344 702.476562 725.453125 702.695312 720.039062 701.867188 L 721.121094 701.867188 C 722.203125 700.378906 717.65625 698.777344 715.710938 700.378906 C 716.035156 699.441406 716.464844 699.714844 717.277344 699.714844 C 713.816406 696.074219 712.40625 706.671875 708.890625 702.421875 C 712.191406 702.972656 712.785156 701.09375 712.785156 699.21875 C 710.027344 700.820312 703.746094 698.832031 704.9375 704.351562 C 703.207031 703.136719 701.855469 703.800781 701.855469 700.984375 L 695.085938 704.132812 C 695.359375 703.859375 695.523438 703.496094 695.542969 703.109375 C 695.589844 702.257812 694.949219 701.527344 694.113281 701.480469 C 698.066406 702.308594 701.636719 697.289062 703.476562 700.929688 C 703.695312 697.5625 702.339844 695.6875 704.234375 692.816406 C 696.765625 694.25 692.652344 699.992188 688 703.855469 L 681.71875 701.207031 L 681.394531 702.75 L 680.417969 698.777344 C 679.554688 699.660156 679.066406 700.378906 678.902344 700.046875 C 678.742188 699.714844 678.960938 699.21875 679.285156 698.613281 C 678.664062 698.753906 678.097656 699.078125 677.660156 699.550781 C 677.78125 697.183594 678.570312 694.902344 679.933594 692.980469 L 681.609375 695.246094 C 682.910156 693.09375 683.882812 691.050781 682.152344 689.726562 L 681.339844 690.554688 C 682.152344 689.0625 682.695312 687.847656 682.152344 687.296875 L 676.738281 689.0625 C 677.636719 690.136719 678.453125 691.28125 679.175781 692.484375 C 676.035156 695.246094 672.519531 698.003906 675.171875 700.765625 L 671.542969 698.335938 C 668.898438 700.738281 665.832031 702.609375 662.503906 703.855469 C 662.019531 702.476562 663.480469 701.316406 662.503906 700.324219 C 658.554688 704.628906 653.195312 694.914062 652.277344 698.777344 C 648.921875 699.714844 650.921875 702.144531 648.921875 703.25 C 649.300781 702.804688 649.515625 701.867188 648.921875 701.867188 L 646.539062 704.628906 C 645.5625 703.578125 648.703125 702.695312 646.105469 701.425781 C 641.722656 703.46875 639.070312 704.847656 635.28125 703.46875 C 629.867188 704.019531 637.5 709.097656 632.953125 708.4375 C 632.304688 706.0625 631.761719 703.304688 628.949219 702.917969 C 627.378906 704.460938 627.59375 706.285156 624.996094 707.222656 L 624.996094 703.691406 C 622.617188 703.800781 620.773438 704.40625 620.773438 701.757812 C 619.652344 702.933594 617.894531 703.183594 616.5 702.363281 C 612.875 704.132812 618.988281 709.539062 619.636719 710.921875 C 616.175781 708.214844 613.738281 709.707031 611.789062 705.402344 L 615.144531 704.738281 C 608.542969 700.269531 608.761719 709.652344 605.78125 702.144531 C 608.058594 702.421875 610.816406 700.542969 609.460938 698.613281 L 606.160156 700.378906 C 605.78125 699.441406 608.058594 699.769531 606.542969 698.667969 C 605.160156 699.769531 603.890625 701.007812 602.75 702.363281 L 602.75 702.199219 L 596.796875 702.695312 C 597.933594 702.863281 598.207031 701.425781 597.070312 701.425781 L 593.171875 703.25 C 594.363281 702.363281 593.117188 701.261719 591.386719 700.652344 C 586.351562 699.441406 587.273438 708.546875 583.429688 704.960938 C 583.972656 705.015625 584.078125 704.628906 584.675781 704.628906 L 582.671875 703.027344 C 582.183594 710.535156 570.820312 703.691406 570.332031 711.195312 C 567.464844 707.941406 570.117188 709.152344 573.851562 705.675781 L 570.820312 703.46875 C 572.0625 703.191406 573.089844 703.800781 574.390625 703.25 C 570.441406 700.046875 566.652344 703.964844 564.488281 705.898438 C 562.917969 704.847656 565.675781 700.269531 561.347656 701.535156 C 555.175781 702.972656 562.484375 707 558.75 707.882812 L 556.042969 703.746094 C 551.332031 706.890625 547.816406 704.1875 543.863281 703.746094 C 543.207031 703.859375 542.636719 704.265625 542.296875 704.847656 C 538.019531 703.136719 533.417969 708.601562 530.226562 707.332031 C 530.984375 706.558594 528.386719 704.902344 528.003906 703.964844 L 522.269531 706.339844 C 524.8125 705.234375 524.703125 702.972656 525.136719 700.820312 C 523.351562 701.039062 522.484375 702.253906 521.292969 702.585938 C 521.835938 701.757812 522.757812 700.984375 521.835938 699.992188 L 515.773438 703.691406 C 516.265625 704.011719 516.820312 704.222656 517.398438 704.296875 C 515.882812 704.296875 512.632812 705.730469 510.46875 703.910156 C 510.6875 703.082031 511.605469 702.253906 511.605469 701.371094 C 513.394531 703.855469 514.421875 701.757812 515.394531 700.046875 C 511.171875 700.488281 514.3125 699.496094 512.308594 697.949219 C 511.929688 697.957031 511.550781 698.027344 511.1875 698.152344 C 509.296875 698.824219 508.296875 700.933594 508.953125 702.863281 C 506.363281 701.53125 503.246094 701.878906 501 703.746094 L 501.648438 700.710938 L 498.507812 701.703125 L 501.054688 697.949219 C 495.046875 695.960938 499.96875 703.191406 493.3125 701.480469 L 493.3125 698.832031 C 490.714844 699.882812 489.902344 704.351562 487.898438 701.207031 C 485.410156 702.804688 492.121094 704.902344 486.332031 705.511719 C 484.988281 704.097656 483.28125 703.101562 481.40625 702.640625 C 479.511719 703.855469 482.8125 705.789062 484.003906 705.402344 C 475.234375 706.726562 478.484375 696.292969 470.636719 699.882812 C 473.339844 701.757812 468.46875 704.902344 474.800781 704.902344 C 471.769531 706.503906 468.792969 701.152344 465.65625 704.074219 L 467.929688 700.652344 C 466.792969 700.597656 465.546875 701.867188 464.898438 702.253906 L 464.898438 699.660156 C 461 704.296875 457.535156 697.5625 455.316406 703.632812 C 456.886719 698.886719 452.394531 703.910156 450.824219 702.089844 C 453.964844 698.722656 460.082031 702.089844 460.40625 697.671875 C 459.648438 697.039062 458.945312 697.261719 458.246094 697.480469 L 456.316406 697.304688 L 455.398438 697.804688 C 455.292969 697.824219 455.453125 697.671875 456.074219 697.289062 L 456.128906 697.289062 C 457.277344 696.625 458.261719 695.699219 459 694.582031 C 453.910156 692.15625 451.148438 697.289062 448.171875 698.5 L 453.585938 697.398438 C 453.207031 701.648438 451.203125 698.171875 449.742188 701.648438 C 447.035156 699.328125 445.03125 702.75 442.816406 701.316406 C 443.410156 701.371094 443.464844 700.929688 444.003906 700.929688 C 438.59375 701.152344 436.96875 694.472656 434.695312 693.976562 C 432.421875 693.480469 428.148438 695.90625 429.769531 697.730469 C 427.929688 698.941406 437.457031 696.515625 434.207031 702.035156 C 431.015625 695.519531 427.445312 704.519531 420.191406 700.269531 C 423.277344 697.785156 418.242188 696.570312 421.058594 694.75 C 417.59375 695.355469 417.484375 696.292969 416.023438 698.226562 L 414.941406 696.183594 C 410.558594 700.875 413.964844 700.269531 407.203125 702.863281 C 409.472656 701.207031 404.441406 699.9375 406.117188 698.5 C 404.269531 698.390625 402.453125 699.046875 401.085938 700.324219 L 401.085938 699.992188 C 394.265625 701.207031 395.402344 697.5625 389.230469 699.992188 L 389.882812 701.207031 C 381.707031 704.628906 371.261719 702.863281 362.820312 704.628906 L 365.742188 705.789062 C 364.824219 704.902344 360.058594 707.609375 357.40625 705.789062 C 357.894531 705.621094 358.816406 705.234375 359.300781 705.234375 C 359.160156 703.394531 357.832031 701.878906 356.054688 701.535156 L 355.351562 703.632812 L 354.484375 702.035156 C 351.34375 702.089844 355.460938 705.125 352.371094 705.125 C 350.425781 699.21875 339.003906 704.792969 336.136719 699.605469 C 334.457031 704.074219 342.035156 700.046875 339.871094 704.074219 C 338.914062 703.160156 337.703125 702.5625 336.40625 702.363281 L 337.378906 704.738281 C 327.746094 703.523438 324.066406 701.480469 315.730469 702.363281 L 316.054688 701.921875 C 313.023438 701.039062 311.453125 701.59375 310.15625 703.910156 C 309.507812 702.695312 311.617188 701.980469 310.425781 700.929688 C 305.445312 707.882812 299.765625 696.460938 296.625 701.261719 C 296.84375 695.960938 289.75 691.160156 292.457031 686.964844 L 290.453125 687.628906 C 290.996094 684.152344 297.222656 687.296875 298.300781 683.597656 L 305.230469 687.019531 C 304.90625 685.695312 306.042969 683.710938 304.90625 683.324219 C 306.585938 683.15625 308.046875 682.9375 305.773438 681.117188 C 322.496094 689.339844 338.734375 680.121094 354.972656 684.425781 C 356.054688 684.097656 355.402344 682.882812 354.972656 682.054688 C 358.003906 685.199219 357.730469 680.234375 359.300781 679.679688 L 363.957031 684.425781 C 365.632812 682.9375 364.335938 681.503906 364.335938 680.507812 C 372.507812 679.292969 380.570312 683.765625 387.121094 680.785156 C 389.503906 682.441406 386.742188 684.703125 389.503906 685.253906 C 385.441406 680.289062 397.40625 682.714844 394.914062 679.238281 C 397.730469 684.480469 404.980469 680.121094 403.898438 687.574219 C 407.253906 687.90625 406.605469 684.371094 405.628906 683.710938 C 409.140625 684.292969 412.734375 683.503906 415.699219 681.503906 C 417.863281 683.101562 433.34375 679.292969 436.859375 684.8125 C 434.480469 681.335938 437.023438 682.9375 439.242188 681.335938 L 437.183594 678.191406 L 442.21875 678.578125 C 443.246094 678.136719 443.574219 678.246094 443.574219 678.578125 C 444.4375 678.6875 443.355469 680.398438 445.574219 681.171875 C 448.984375 681.335938 449.148438 679.570312 450.988281 677.914062 L 450.5 677.417969 L 452.828125 677.085938 C 454.558594 677.195312 446.984375 680.34375 452.394531 681.886719 C 452.503906 681.058594 455.75 676.753906 457.320312 679.074219 C 454.398438 678.90625 454.777344 681.117188 455.859375 682.054688 L 459.917969 682.054688 L 458.511719 678.023438 C 470.148438 678.082031 482.21875 680.894531 494.558594 680.5625 C 494.394531 684.261719 503.324219 680.839844 502.242188 686.082031 L 501.757812 685.585938 C 498.726562 686.082031 502.675781 689.671875 505.113281 689.0625 C 502.515625 687.40625 509.714844 683.820312 503.433594 683.101562 L 508.304688 680.617188 C 510.957031 670.628906 521.242188 681.335938 528.601562 678.191406 C 528.234375 678.496094 527.984375 678.925781 527.898438 679.40625 C 534.5 676.257812 542.621094 682.164062 544.136719 680.5625 L 544.730469 683.269531 C 550.304688 679.074219 550.957031 678.742188 557.667969 680.453125 C 557.667969 680.894531 556.640625 681.667969 557.667969 682.273438 C 559.285156 679.523438 562.4375 678.128906 565.515625 678.796875 L 565.515625 679.625 L 572.660156 679.292969 C 572.550781 687.683594 584.726562 674.214844 587.109375 683.378906 C 588.519531 680.949219 593.765625 680.234375 596.09375 679.074219 C 596.121094 679.515625 596.316406 679.933594 596.636719 680.234375 C 599.34375 675.707031 604.429688 681.722656 607.460938 681.226562 C 609.460938 680.175781 608.597656 678.6875 607.785156 677.253906 C 611.789062 680.894531 618.664062 673.445312 619.910156 675.101562 Z M 619.910156 675.101562 " fill-opacity="1" fill-rule="evenodd"/></g></svg>