<svg xmlns="http://www.w3.org/2000/svg" xmlns:xlink="http://www.w3.org/1999/xlink" width="1920" zoomAndPan="magnify" viewBox="0 0 1440 887.999991" height="1184" preserveAspectRatio="xMidYMid meet" version="1.0"><defs><g/><clipPath id="07c0bd60b0"><path d="M 287.046875 0 L 1175.046875 0 L 1175.046875 888 L 287.046875 888 Z M 287.046875 0 " clip-rule="nonzero"/></clipPath><clipPath id="5b28d71ca6"><path d="M 287.046875 674.855469 L 1025.046875 674.855469 L 1025.046875 712 L 287.046875 712 Z M 287.046875 674.855469 " clip-rule="nonzero"/></clipPath></defs><rect x="-144" width="1728" fill="#ffffff" y="-88.799999" height="1065.599989" fill-opacity="1"/><rect x="-144" width="1728" fill="#000000" y="-88.799999" height="1065.599989" fill-opacity="1"/><g clip-path="url(#07c0bd60b0)"><path fill="#000000" d="M 287.046875 0 L 1175.046875 0 L 1175.046875 888 L 287.046875 888 Z M 287.046875 0 " fill-opacity="1" fill-rule="nonzero"/></g><g fill="#ffffff" fill-opacity="1"><g transform="translate(279.325638, 596.472258)"><g><path d="M 305.546875 -84.90625 C 313.265625 -84.050781 316.375 -81.90625 314.875 -78.46875 C 313.375 -75.039062 310.15625 -71.503906 305.21875 -67.859375 C 300.289062 -64.210938 296.109375 -61.535156 292.671875 -59.828125 C 273.804688 -50.390625 253.867188 -44.0625 232.859375 -40.84375 C 211.847656 -37.625 191.265625 -32.375 171.109375 -25.09375 C 161.671875 -22.082031 152.445312 -18.328125 143.4375 -13.828125 C 134.4375 -9.328125 125.648438 -4.71875 117.078125 0 C 111.929688 2.570312 107.210938 5.144531 102.921875 7.71875 C 98.628906 10.289062 94.769531 13.9375 91.34375 18.65625 C 90.914062 19.082031 89.519531 20.582031 87.15625 23.15625 C 84.800781 25.726562 82.65625 28.085938 80.71875 30.234375 C 78.789062 32.378906 77.828125 33.238281 77.828125 32.8125 C 73.546875 37.09375 69.046875 40.953125 64.328125 44.390625 C 66.035156 43.523438 68.601562 42.019531 72.03125 39.875 C 75.46875 37.738281 77.398438 37.097656 77.828125 37.953125 C 78.253906 40.523438 76.859375 42.988281 73.640625 45.34375 C 70.429688 47.707031 66.679688 49.640625 62.390625 51.140625 C 58.109375 52.640625 54.894531 53.601562 52.75 54.03125 C 45.882812 54.882812 38.695312 54.132812 31.1875 51.78125 C 23.6875 49.425781 18.863281 44.390625 16.71875 36.671875 C 13.71875 25.941406 15.328125 15.21875 21.546875 4.5 C 27.765625 -6.21875 34.304688 -15.007812 41.171875 -21.875 C 48.023438 -28.726562 55.3125 -33.660156 63.03125 -36.671875 C 67.75 -38.804688 72.789062 -40.515625 78.15625 -41.796875 C 83.519531 -43.085938 87.054688 -46.304688 88.765625 -51.453125 C 88.765625 -51.023438 88.976562 -53.488281 89.40625 -58.84375 C 89.84375 -64.207031 90.914062 -67.320312 92.625 -68.1875 C 93.050781 -68.1875 92.726562 -65.929688 91.65625 -61.421875 C 90.59375 -56.921875 90.0625 -54.671875 90.0625 -54.671875 C 90.914062 -57.242188 91.660156 -59.816406 92.296875 -62.390625 C 92.941406 -64.960938 93.695312 -67.75 94.5625 -70.75 C 94.132812 -70.320312 93.488281 -70.320312 92.625 -70.75 C 91.769531 -73.757812 91.984375 -77.835938 93.265625 -82.984375 C 94.554688 -88.128906 96.164062 -93.378906 98.09375 -98.734375 C 100.019531 -104.097656 101.203125 -108.066406 101.640625 -110.640625 C 103.347656 -116.640625 105.0625 -122.640625 106.78125 -128.640625 C 108.5 -134.648438 110 -140.65625 111.28125 -146.65625 C 114.28125 -157.8125 116.640625 -168.640625 118.359375 -179.140625 C 120.078125 -189.648438 121.578125 -200.476562 122.859375 -211.625 C 124.148438 -224.0625 126.398438 -236.175781 129.609375 -247.96875 C 132.828125 -259.757812 135.9375 -271.445312 138.9375 -283.03125 C 139.363281 -284.3125 140.648438 -288.597656 142.796875 -295.890625 C 144.941406 -303.179688 147.191406 -310.257812 149.546875 -317.125 C 151.910156 -323.988281 153.519531 -327.421875 154.375 -327.421875 C 154.800781 -327.421875 154.585938 -325.914062 153.734375 -322.90625 C 152.878906 -319.90625 152.664062 -318.191406 153.09375 -317.765625 C 155.238281 -324.203125 157.164062 -330.632812 158.875 -337.0625 C 160.59375 -343.5 162.3125 -349.71875 164.03125 -355.71875 C 163.601562 -355.289062 162.632812 -353.570312 161.125 -350.5625 C 159.625 -347.5625 158.875 -346.28125 158.875 -346.71875 C 158.445312 -350.144531 159.410156 -354.429688 161.765625 -359.578125 C 164.128906 -364.722656 165.957031 -369.007812 167.25 -372.4375 L 176.25 -399.453125 C 179.675781 -408.460938 183.210938 -417.46875 186.859375 -426.46875 C 190.503906 -435.476562 195.113281 -444.054688 200.6875 -452.203125 C 207.976562 -462.492188 216.554688 -471.390625 226.421875 -478.890625 C 236.285156 -486.398438 247.648438 -490.367188 260.515625 -490.796875 C 269.523438 -491.660156 278.53125 -490.695312 287.53125 -487.90625 C 296.539062 -485.113281 304.6875 -481.578125 311.96875 -477.296875 C 325.695312 -470.003906 335.453125 -461.210938 341.234375 -450.921875 C 347.023438 -440.628906 350.351562 -428.617188 351.21875 -414.890625 C 352.070312 -403.742188 350.25 -391.414062 345.75 -377.90625 C 341.25 -364.394531 335.242188 -351.742188 327.734375 -339.953125 C 320.234375 -328.160156 311.976562 -318.832031 302.96875 -311.96875 C 297.820312 -308.113281 291.925781 -304.898438 285.28125 -302.328125 C 278.632812 -299.753906 272.09375 -298.679688 265.65625 -299.109375 C 261.375 -299.535156 257.410156 -300.925781 253.765625 -303.28125 C 250.117188 -305.644531 249.582031 -309.1875 252.15625 -313.90625 C 252.15625 -313.90625 252.367188 -314.117188 252.796875 -314.546875 C 253.222656 -314.972656 253.648438 -315.398438 254.078125 -315.828125 L 253.4375 -315.828125 C 253.4375 -315.828125 254.613281 -318.289062 256.96875 -323.21875 C 259.332031 -328.15625 262.015625 -333.734375 265.015625 -339.953125 C 268.015625 -346.171875 270.910156 -351.53125 273.703125 -356.03125 C 276.492188 -360.539062 278.101562 -362.796875 278.53125 -362.796875 C 278.957031 -362.796875 278.421875 -361.078125 276.921875 -357.640625 C 275.421875 -354.210938 274.023438 -350.675781 272.734375 -347.03125 C 271.453125 -343.382812 270.8125 -341.347656 270.8125 -340.921875 C 280.675781 -361.503906 288.820312 -382.300781 295.25 -403.3125 C 296.539062 -407.175781 298.039062 -412.21875 299.75 -418.4375 C 301.46875 -424.65625 302.644531 -430.875 303.28125 -437.09375 C 303.925781 -443.3125 302.960938 -448.347656 300.390625 -452.203125 C 297.816406 -456.492188 294.28125 -458.207031 289.78125 -457.34375 C 285.28125 -456.488281 280.773438 -454.5625 276.265625 -451.5625 C 271.765625 -448.5625 268.226562 -445.773438 265.65625 -443.203125 C 256.65625 -434.191406 249.148438 -423.679688 243.140625 -411.671875 C 237.140625 -399.671875 231.78125 -387.878906 227.0625 -376.296875 C 230.925781 -384.878906 235.320312 -394.421875 240.25 -404.921875 C 245.1875 -415.429688 251.191406 -425.1875 258.265625 -434.1875 C 265.335938 -443.195312 273.59375 -449.414062 283.03125 -452.84375 C 289.457031 -455.414062 293.957031 -455.414062 296.53125 -452.84375 C 299.101562 -450.269531 300.390625 -446.625 300.390625 -441.90625 C 300.390625 -437.195312 299.851562 -432.375 298.78125 -427.4375 C 297.71875 -422.507812 296.753906 -418.972656 295.890625 -416.828125 C 296.753906 -419.398438 297.503906 -423.363281 298.140625 -428.71875 C 298.785156 -434.082031 298.894531 -439.335938 298.46875 -444.484375 C 298.039062 -449.628906 296.109375 -452.628906 292.671875 -453.484375 C 286.671875 -455.203125 280.5625 -452.953125 274.34375 -446.734375 C 268.125 -440.515625 263.515625 -435.476562 260.515625 -431.625 C 247.222656 -414.46875 236.5 -395.273438 228.34375 -374.046875 C 220.195312 -352.816406 212.695312 -332.125 205.84375 -311.96875 C 192.113281 -270.375 180.101562 -228.132812 169.8125 -185.25 C 159.519531 -142.375 146.226562 -100.566406 129.9375 -59.828125 C 151.375 -66.253906 173.023438 -71.929688 194.890625 -76.859375 C 216.765625 -81.796875 238.851562 -84.910156 261.15625 -86.203125 C 268.445312 -86.628906 275.953125 -86.734375 283.671875 -86.515625 C 291.390625 -86.304688 298.679688 -85.769531 305.546875 -84.90625 Z M 169.8125 -364.71875 C 166.382812 -353.570312 162.953125 -342.421875 159.515625 -331.265625 C 156.085938 -320.117188 152.875 -308.972656 149.875 -297.828125 C 152.445312 -306.398438 155.234375 -314.546875 158.234375 -322.265625 C 161.242188 -329.984375 164.25 -337.703125 167.25 -345.421875 C 172.394531 -356.578125 177.539062 -368.691406 182.6875 -381.765625 C 187.832031 -394.847656 193.617188 -407.820312 200.046875 -420.6875 C 206.484375 -433.550781 214.3125 -444.695312 223.53125 -454.125 C 232.75 -463.5625 243.789062 -469.78125 256.65625 -472.78125 C 246.363281 -470.644531 237.25 -466.679688 229.3125 -460.890625 C 221.382812 -455.097656 213.988281 -447.484375 207.125 -438.046875 C 198.976562 -426.898438 191.898438 -415.210938 185.890625 -402.984375 C 179.890625 -390.765625 174.53125 -378.007812 169.8125 -364.71875 Z M 203.90625 -314.546875 L 203.90625 -315.1875 C 201.332031 -307.46875 198.757812 -299.851562 196.1875 -292.34375 C 193.613281 -284.84375 191.253906 -277.234375 189.109375 -269.515625 L 203.90625 -313.90625 L 203.90625 -315.1875 Z M 63.6875 45.03125 L 64.328125 44.390625 C 63.898438 44.390625 63.6875 44.492188 63.6875 44.703125 C 63.6875 44.921875 63.6875 45.03125 63.6875 45.03125 Z M 63.6875 45.03125 "/></g></g></g><g fill="#ffffff" fill-opacity="1"><g transform="translate(600.307135, 596.472258)"><g><path d="M 477.9375 108.703125 C 480.082031 107.847656 483.726562 106.238281 488.875 103.875 C 494.019531 101.519531 498.945312 99.695312 503.65625 98.40625 C 508.375 97.125 510.953125 98.203125 511.390625 101.640625 C 512.242188 105.066406 511.0625 109.03125 507.84375 113.53125 C 504.625 118.03125 500.976562 122.207031 496.90625 126.0625 C 492.832031 129.925781 489.722656 132.929688 487.578125 135.078125 C 476.429688 144.085938 464 150.304688 450.28125 153.734375 C 436.125 157.597656 423.578125 157.171875 412.640625 152.453125 C 401.703125 147.734375 391.734375 139.582031 382.734375 128 C 370.296875 111.707031 362.253906 94.769531 358.609375 77.1875 C 354.960938 59.601562 354.210938 41.59375 356.359375 23.15625 C 358.503906 4.71875 362.148438 -13.503906 367.296875 -31.515625 C 367.296875 -31.515625 367.507812 -33.765625 367.9375 -38.265625 C 368.363281 -42.773438 369.222656 -45.457031 370.515625 -46.3125 C 370.515625 -45.882812 370.40625 -44.597656 370.1875 -42.453125 C 369.976562 -40.304688 369.65625 -38.59375 369.21875 -37.3125 L 372.4375 -48.890625 C 372.4375 -48.460938 372.007812 -48.25 371.15625 -48.25 C 370.300781 -52.101562 371.160156 -57.242188 373.734375 -63.671875 C 376.304688 -70.109375 378.234375 -75.039062 379.515625 -78.46875 L 393.671875 -110.640625 C 397.953125 -120.078125 401.914062 -129.40625 405.5625 -138.625 C 409.207031 -147.84375 412.75 -157.171875 416.1875 -166.609375 C 419.613281 -177.328125 424.003906 -187.722656 429.359375 -197.796875 C 434.722656 -207.878906 439.765625 -217.847656 444.484375 -227.703125 C 445.335938 -228.992188 447.050781 -232.425781 449.625 -238 C 452.195312 -243.570312 454.769531 -248.929688 457.34375 -254.078125 C 459.914062 -259.222656 461.632812 -261.582031 462.5 -261.15625 C 462.5 -261.15625 462.066406 -259.867188 461.203125 -257.296875 C 460.347656 -254.722656 460.132812 -253.222656 460.5625 -252.796875 C 462.707031 -258.367188 464.851562 -263.941406 467 -269.515625 C 469.144531 -275.097656 471.070312 -280.675781 472.78125 -286.25 L 468.28125 -277.234375 C 468.28125 -280.242188 469.242188 -284.101562 471.171875 -288.8125 C 473.109375 -293.53125 474.394531 -298.035156 475.03125 -302.328125 C 475.675781 -306.617188 473.640625 -309.191406 468.921875 -310.046875 C 463.347656 -311.328125 457.128906 -309.070312 450.265625 -303.28125 C 443.410156 -297.5 438.269531 -292.894531 434.84375 -289.46875 C 420.257812 -276.164062 407.070312 -262.007812 395.28125 -247 C 383.488281 -232 372.015625 -216.347656 360.859375 -200.046875 C 355.285156 -192.328125 349.925781 -184.710938 344.78125 -177.203125 C 339.632812 -169.703125 333.628906 -162.523438 326.765625 -155.671875 C 322.484375 -151.804688 318.835938 -146.765625 315.828125 -140.546875 C 312.828125 -134.328125 309.613281 -128.644531 306.1875 -123.5 C 300.613281 -114.070312 295.144531 -104.742188 289.78125 -95.515625 C 284.425781 -86.296875 278.957031 -77.1875 273.375 -68.1875 C 269.519531 -61.320312 265.234375 -54.566406 260.515625 -47.921875 C 255.796875 -41.273438 252.148438 -34.304688 249.578125 -27.015625 C 247.429688 -21.015625 245.070312 -15.65625 242.5 -10.9375 C 239.925781 -6.21875 236.601562 -3.644531 232.53125 -3.21875 C 228.457031 -2.789062 222.988281 -5.578125 216.125 -11.578125 C 206.695312 -21.015625 201.335938 -31.628906 200.046875 -43.421875 C 198.765625 -55.210938 199.410156 -67.113281 201.984375 -79.125 C 209.273438 -115.570312 221.492188 -151.269531 238.640625 -186.21875 C 255.796875 -221.164062 273.59375 -254.296875 292.03125 -285.609375 C 300.175781 -299.328125 307.679688 -313.582031 314.546875 -328.375 C 321.410156 -343.175781 327.628906 -357.863281 333.203125 -372.4375 C 334.054688 -375.007812 335.234375 -378.222656 336.734375 -382.078125 C 338.242188 -385.941406 337.710938 -388.304688 335.140625 -389.171875 C 332.128906 -390.453125 327.515625 -389.054688 321.296875 -384.984375 C 315.078125 -380.910156 310.898438 -378.015625 308.765625 -376.296875 C 294.179688 -365.578125 280.882812 -353.140625 268.875 -338.984375 C 256.875 -324.835938 245.296875 -310.472656 234.140625 -295.890625 C 222.992188 -281.316406 212.164062 -266.304688 201.65625 -250.859375 C 191.15625 -235.421875 180.757812 -219.769531 170.46875 -203.90625 C 159.738281 -187.613281 149.117188 -171.101562 138.609375 -154.375 C 128.109375 -137.65625 117.710938 -120.929688 107.421875 -104.203125 C 102.703125 -96.054688 97.875 -88.015625 92.9375 -80.078125 C 88.007812 -72.148438 83.832031 -63.894531 80.40625 -55.3125 C 76.976562 -47.164062 73.757812 -39.019531 70.75 -30.875 C 67.75 -22.726562 64.535156 -14.367188 61.109375 -5.796875 C 59.390625 -0.640625 57.566406 5.363281 55.640625 12.21875 C 53.710938 19.082031 51.03125 24.875 47.59375 29.59375 C 43.3125 35.164062 37.628906 37.953125 30.546875 37.953125 C 23.472656 37.953125 17.148438 35.804688 11.578125 31.515625 C 6.859375 27.660156 3.640625 22.835938 1.921875 17.046875 C 0.210938 11.253906 -0.425781 5.359375 0 -0.640625 C 0.851562 -18.222656 4.492188 -36.234375 10.921875 -54.671875 C 17.359375 -73.117188 24.007812 -90.273438 30.875 -106.140625 C 37.738281 -122.429688 44.597656 -138.398438 51.453125 -154.046875 C 58.316406 -169.703125 64.75 -185.679688 70.75 -201.984375 C 83.1875 -235.429688 97.125 -268.554688 112.5625 -301.359375 C 128 -334.171875 140.4375 -367.941406 149.875 -402.671875 L 149.875 -396.234375 L 153.734375 -420.046875 C 155.023438 -427.765625 154.914062 -434.625 153.40625 -440.625 C 151.90625 -446.625 146.226562 -448.554688 136.375 -446.421875 C 129.507812 -444.703125 123.070312 -441.484375 117.0625 -436.765625 C 111.0625 -432.046875 105.703125 -426.898438 100.984375 -421.328125 C 89.410156 -409.316406 79.332031 -395.695312 70.75 -380.46875 C 62.175781 -365.25 54.890625 -349.707031 48.890625 -333.84375 C 47.597656 -330.84375 46.523438 -327.195312 45.671875 -322.90625 C 44.816406 -318.625 44.171875 -315.410156 43.734375 -313.265625 C 43.304688 -310.691406 43.195312 -308.222656 43.40625 -305.859375 C 43.625 -303.503906 42.664062 -301.253906 40.53125 -299.109375 C 36.664062 -296.109375 32.800781 -295.460938 28.9375 -297.171875 C 25.082031 -298.890625 21.867188 -301.46875 19.296875 -304.90625 C 14.148438 -312.625 11.578125 -321.945312 11.578125 -332.875 C 11.578125 -343.8125 12.648438 -353.570312 14.796875 -362.15625 C 16.941406 -369.875 20.367188 -376.835938 25.078125 -383.046875 C 29.796875 -389.265625 33.660156 -395.804688 36.671875 -402.671875 C 37.523438 -404.816406 38.164062 -407.175781 38.59375 -409.75 C 39.019531 -412.320312 40.09375 -414.894531 41.8125 -417.46875 L 48.25 -426.46875 C 55.101562 -434.1875 62.390625 -441.476562 70.109375 -448.34375 C 85.117188 -460.78125 101.628906 -469.785156 119.640625 -475.359375 C 129.929688 -478.785156 140.332031 -480.175781 150.84375 -479.53125 C 161.351562 -478.894531 170.679688 -474.289062 178.828125 -465.71875 C 183.972656 -460.132812 188.046875 -453.054688 191.046875 -444.484375 C 194.046875 -435.910156 196.40625 -427.976562 198.125 -420.6875 C 200.269531 -410.820312 200.269531 -400.097656 198.125 -388.515625 C 195.976562 -376.941406 193.40625 -366.4375 190.40625 -357 C 187.40625 -347.570312 184.507812 -338.140625 181.71875 -328.703125 C 178.925781 -319.265625 175.816406 -309.828125 172.390625 -300.390625 C 169.390625 -291.390625 166.28125 -282.492188 163.0625 -273.703125 C 159.84375 -264.910156 156.519531 -256.015625 153.09375 -247.015625 C 150.519531 -240.148438 148.375 -233.285156 146.65625 -226.421875 C 144.945312 -219.554688 143.019531 -212.484375 140.875 -205.203125 C 157.59375 -231.359375 175.171875 -257.515625 193.609375 -283.671875 C 212.054688 -309.828125 232 -334.269531 253.4375 -357 C 257.726562 -361.289062 262.984375 -367.296875 269.203125 -375.015625 C 275.421875 -382.734375 282.390625 -390.453125 290.109375 -398.171875 C 297.828125 -405.890625 305.757812 -412.210938 313.90625 -417.140625 C 322.050781 -422.078125 330.195312 -424.4375 338.34375 -424.21875 C 346.5 -424.007812 354.003906 -419.613281 360.859375 -411.03125 C 369.003906 -401.164062 374.253906 -389.375 376.609375 -375.65625 C 378.972656 -361.9375 377.796875 -349.070312 373.078125 -337.0625 C 368.796875 -326.34375 363.113281 -315.941406 356.03125 -305.859375 C 348.957031 -295.785156 343.0625 -285.390625 338.34375 -274.671875 C 325.90625 -245.929688 312.929688 -217.410156 299.421875 -189.109375 C 285.921875 -160.804688 274.664062 -131.429688 265.65625 -100.984375 C 277.238281 -121.140625 289.140625 -141.082031 301.359375 -160.8125 C 313.578125 -180.539062 326.335938 -199.835938 339.640625 -218.703125 C 336.640625 -214.410156 333.316406 -209.90625 329.671875 -205.1875 C 326.023438 -200.476562 322.695312 -195.765625 319.6875 -191.046875 C 325.695312 -200.046875 330.953125 -207.976562 335.453125 -214.84375 C 339.953125 -221.707031 342.847656 -225.992188 344.140625 -227.703125 C 355.285156 -243.148438 366.96875 -258.269531 379.1875 -273.0625 C 391.414062 -287.851562 404.820312 -301.679688 419.40625 -314.546875 C 427.125 -321.835938 436.019531 -328.804688 446.09375 -335.453125 C 456.164062 -342.097656 466.78125 -345.421875 477.9375 -345.421875 C 491.226562 -345.847656 501.945312 -341.128906 510.09375 -331.265625 C 518.238281 -321.410156 523.382812 -310.476562 525.53125 -298.46875 C 528.96875 -280.03125 527.894531 -261.910156 522.3125 -244.109375 C 516.738281 -226.316406 509.445312 -209.054688 500.4375 -192.328125 C 491.4375 -175.609375 483.078125 -159.3125 475.359375 -143.4375 C 477.078125 -146.445312 478.578125 -147.953125 479.859375 -147.953125 C 479.859375 -147.953125 479.109375 -145.804688 477.609375 -141.515625 C 476.109375 -137.222656 474.175781 -132.179688 471.8125 -126.390625 C 469.457031 -120.609375 467.316406 -115.359375 465.390625 -110.640625 C 463.460938 -105.921875 462.285156 -103.132812 461.859375 -102.28125 C 457.992188 -93.269531 454.238281 -84.257812 450.59375 -75.25 C 446.945312 -66.25 443.195312 -57.460938 439.34375 -48.890625 C 432.476562 -32.160156 425.9375 -15.328125 419.71875 1.609375 C 413.5 18.546875 408.460938 35.804688 404.609375 53.390625 C 403.316406 58.960938 402.023438 65.394531 400.734375 72.6875 C 399.453125 79.976562 399.5625 86.945312 401.0625 93.59375 C 402.5625 100.238281 406.316406 105.273438 412.328125 108.703125 C 421.328125 113.421875 432.257812 115.351562 445.125 114.5 C 457.988281 113.644531 468.925781 111.710938 477.9375 108.703125 Z M 392.375 -84.265625 C 387.226562 -73.546875 383.15625 -62.929688 380.15625 -52.421875 C 377.15625 -41.921875 373.941406 -31.304688 370.515625 -20.578125 C 373.941406 -30.441406 377.582031 -40.09375 381.4375 -49.53125 C 385.300781 -58.96875 389.378906 -68.398438 393.671875 -77.828125 C 398.816406 -88.984375 404.175781 -100.671875 409.75 -112.890625 C 415.320312 -125.109375 419.179688 -137.007812 421.328125 -148.59375 C 423.046875 -152.445312 423.046875 -154.585938 421.328125 -155.015625 C 418.328125 -151.160156 415.96875 -145.585938 414.25 -138.296875 C 412.539062 -131.003906 410.613281 -125 408.46875 -120.28125 C 405.894531 -114.28125 403.320312 -108.273438 400.75 -102.265625 C 398.175781 -96.265625 395.382812 -90.265625 392.375 -84.265625 Z M 107.421875 -276.59375 C 101.847656 -263.300781 96.378906 -250.113281 91.015625 -237.03125 C 85.660156 -223.957031 80.410156 -210.554688 75.265625 -196.828125 C 81.265625 -211.410156 87.265625 -225.773438 93.265625 -239.921875 C 99.273438 -254.078125 105.707031 -268.019531 112.5625 -281.75 C 119.851562 -296.320312 125.960938 -311.113281 130.890625 -326.125 C 135.828125 -341.132812 140.226562 -356.144531 144.09375 -371.15625 C 142.375 -366.007812 140.546875 -360.96875 138.609375 -356.03125 C 136.679688 -351.101562 134.648438 -346.28125 132.515625 -341.5625 C 128.222656 -330.84375 124.144531 -320.015625 120.28125 -309.078125 C 116.425781 -298.140625 112.140625 -287.3125 107.421875 -276.59375 Z M 313.265625 -181.390625 C 310.265625 -176.242188 306.082031 -169.273438 300.71875 -160.484375 C 295.351562 -151.691406 290.523438 -143.863281 286.234375 -137 C 281.953125 -130.144531 279.382812 -126.71875 278.53125 -126.71875 C 278.53125 -126.71875 282.28125 -132.503906 289.78125 -144.078125 C 297.289062 -155.660156 305.117188 -168.097656 313.265625 -181.390625 Z M 411.03125 -304.25 C 406.75 -300.394531 402.675781 -296.429688 398.8125 -292.359375 C 394.957031 -288.285156 391.097656 -283.890625 387.234375 -279.171875 Z M 365.359375 0 C 366.648438 -2.570312 366.648438 -4.070312 365.359375 -4.5 C 363.648438 -1.925781 363.648438 -0.425781 365.359375 0 Z M 380.796875 -271.453125 L 382.734375 -273.375 L 383.375 -274.671875 L 384.015625 -275.3125 C 384.015625 -274.882812 383.90625 -274.671875 383.6875 -274.671875 C 383.476562 -274.671875 383.375 -274.671875 383.375 -274.671875 L 384.015625 -275.3125 L 385.3125 -276.59375 L 385.953125 -277.234375 L 387.234375 -279.171875 L 385.953125 -277.890625 C 385.523438 -277.453125 384.988281 -276.804688 384.34375 -275.953125 C 383.695312 -275.097656 382.945312 -274.023438 382.09375 -272.734375 L 382.09375 -273.375 Z M 314.546875 -183.328125 L 317.125 -186.546875 L 317.125 -187.1875 Z M 313.265625 -181.390625 C 314.117188 -182.253906 314.546875 -182.898438 314.546875 -183.328125 Z M 385.3125 -277.234375 C 385.738281 -277.234375 385.953125 -277.34375 385.953125 -277.5625 C 385.953125 -277.78125 385.953125 -277.890625 385.953125 -277.890625 Z M 385.3125 -277.234375 "/></g></g></g><g fill="#ffb400" fill-opacity="1"><g transform="translate(302.625705, 590.229023)"><g><path d="M 305.546875 -84.90625 C 313.265625 -84.050781 316.375 -81.90625 314.875 -78.46875 C 313.375 -75.039062 310.15625 -71.503906 305.21875 -67.859375 C 300.289062 -64.210938 296.109375 -61.535156 292.671875 -59.828125 C 273.804688 -50.390625 253.867188 -44.0625 232.859375 -40.84375 C 211.847656 -37.625 191.265625 -32.375 171.109375 -25.09375 C 161.671875 -22.082031 152.445312 -18.328125 143.4375 -13.828125 C 134.4375 -9.328125 125.648438 -4.71875 117.078125 0 C 111.929688 2.570312 107.210938 5.144531 102.921875 7.71875 C 98.628906 10.289062 94.769531 13.9375 91.34375 18.65625 C 90.914062 19.082031 89.519531 20.582031 87.15625 23.15625 C 84.800781 25.726562 82.65625 28.085938 80.71875 30.234375 C 78.789062 32.378906 77.828125 33.238281 77.828125 32.8125 C 73.546875 37.09375 69.046875 40.953125 64.328125 44.390625 C 66.035156 43.523438 68.601562 42.019531 72.03125 39.875 C 75.46875 37.738281 77.398438 37.097656 77.828125 37.953125 C 78.253906 40.523438 76.859375 42.988281 73.640625 45.34375 C 70.429688 47.707031 66.679688 49.640625 62.390625 51.140625 C 58.109375 52.640625 54.894531 53.601562 52.75 54.03125 C 45.882812 54.882812 38.695312 54.132812 31.1875 51.78125 C 23.6875 49.425781 18.863281 44.390625 16.71875 36.671875 C 13.71875 25.941406 15.328125 15.21875 21.546875 4.5 C 27.765625 -6.21875 34.304688 -15.007812 41.171875 -21.875 C 48.023438 -28.726562 55.3125 -33.660156 63.03125 -36.671875 C 67.75 -38.804688 72.789062 -40.515625 78.15625 -41.796875 C 83.519531 -43.085938 87.054688 -46.304688 88.765625 -51.453125 C 88.765625 -51.023438 88.976562 -53.488281 89.40625 -58.84375 C 89.84375 -64.207031 90.914062 -67.320312 92.625 -68.1875 C 93.050781 -68.1875 92.726562 -65.929688 91.65625 -61.421875 C 90.59375 -56.921875 90.0625 -54.671875 90.0625 -54.671875 C 90.914062 -57.242188 91.660156 -59.816406 92.296875 -62.390625 C 92.941406 -64.960938 93.695312 -67.75 94.5625 -70.75 C 94.132812 -70.320312 93.488281 -70.320312 92.625 -70.75 C 91.769531 -73.757812 91.984375 -77.835938 93.265625 -82.984375 C 94.554688 -88.128906 96.164062 -93.378906 98.09375 -98.734375 C 100.019531 -104.097656 101.203125 -108.066406 101.640625 -110.640625 C 103.347656 -116.640625 105.0625 -122.640625 106.78125 -128.640625 C 108.5 -134.648438 110 -140.65625 111.28125 -146.65625 C 114.28125 -157.8125 116.640625 -168.640625 118.359375 -179.140625 C 120.078125 -189.648438 121.578125 -200.476562 122.859375 -211.625 C 124.148438 -224.0625 126.398438 -236.175781 129.609375 -247.96875 C 132.828125 -259.757812 135.9375 -271.445312 138.9375 -283.03125 C 139.363281 -284.3125 140.648438 -288.597656 142.796875 -295.890625 C 144.941406 -303.179688 147.191406 -310.257812 149.546875 -317.125 C 151.910156 -323.988281 153.519531 -327.421875 154.375 -327.421875 C 154.800781 -327.421875 154.585938 -325.914062 153.734375 -322.90625 C 152.878906 -319.90625 152.664062 -318.191406 153.09375 -317.765625 C 155.238281 -324.203125 157.164062 -330.632812 158.875 -337.0625 C 160.59375 -343.5 162.3125 -349.71875 164.03125 -355.71875 C 163.601562 -355.289062 162.632812 -353.570312 161.125 -350.5625 C 159.625 -347.5625 158.875 -346.28125 158.875 -346.71875 C 158.445312 -350.144531 159.410156 -354.429688 161.765625 -359.578125 C 164.128906 -364.722656 165.957031 -369.007812 167.25 -372.4375 L 176.25 -399.453125 C 179.675781 -408.460938 183.210938 -417.46875 186.859375 -426.46875 C 190.503906 -435.476562 195.113281 -444.054688 200.6875 -452.203125 C 207.976562 -462.492188 216.554688 -471.390625 226.421875 -478.890625 C 236.285156 -486.398438 247.648438 -490.367188 260.515625 -490.796875 C 269.523438 -491.660156 278.53125 -490.695312 287.53125 -487.90625 C 296.539062 -485.113281 304.6875 -481.578125 311.96875 -477.296875 C 325.695312 -470.003906 335.453125 -461.210938 341.234375 -450.921875 C 347.023438 -440.628906 350.351562 -428.617188 351.21875 -414.890625 C 352.070312 -403.742188 350.25 -391.414062 345.75 -377.90625 C 341.25 -364.394531 335.242188 -351.742188 327.734375 -339.953125 C 320.234375 -328.160156 311.976562 -318.832031 302.96875 -311.96875 C 297.820312 -308.113281 291.925781 -304.898438 285.28125 -302.328125 C 278.632812 -299.753906 272.09375 -298.679688 265.65625 -299.109375 C 261.375 -299.535156 257.410156 -300.925781 253.765625 -303.28125 C 250.117188 -305.644531 249.582031 -309.1875 252.15625 -313.90625 C 252.15625 -313.90625 252.367188 -314.117188 252.796875 -314.546875 C 253.222656 -314.972656 253.648438 -315.398438 254.078125 -315.828125 L 253.4375 -315.828125 C 253.4375 -315.828125 254.613281 -318.289062 256.96875 -323.21875 C 259.332031 -328.15625 262.015625 -333.734375 265.015625 -339.953125 C 268.015625 -346.171875 270.910156 -351.53125 273.703125 -356.03125 C 276.492188 -360.539062 278.101562 -362.796875 278.53125 -362.796875 C 278.957031 -362.796875 278.421875 -361.078125 276.921875 -357.640625 C 275.421875 -354.210938 274.023438 -350.675781 272.734375 -347.03125 C 271.453125 -343.382812 270.8125 -341.347656 270.8125 -340.921875 C 280.675781 -361.503906 288.820312 -382.300781 295.25 -403.3125 C 296.539062 -407.175781 298.039062 -412.21875 299.75 -418.4375 C 301.46875 -424.65625 302.644531 -430.875 303.28125 -437.09375 C 303.925781 -443.3125 302.960938 -448.347656 300.390625 -452.203125 C 297.816406 -456.492188 294.28125 -458.207031 289.78125 -457.34375 C 285.28125 -456.488281 280.773438 -454.5625 276.265625 -451.5625 C 271.765625 -448.5625 268.226562 -445.773438 265.65625 -443.203125 C 256.65625 -434.191406 249.148438 -423.679688 243.140625 -411.671875 C 237.140625 -399.671875 231.78125 -387.878906 227.0625 -376.296875 C 230.925781 -384.878906 235.320312 -394.421875 240.25 -404.921875 C 245.1875 -415.429688 251.191406 -425.1875 258.265625 -434.1875 C 265.335938 -443.195312 273.59375 -449.414062 283.03125 -452.84375 C 289.457031 -455.414062 293.957031 -455.414062 296.53125 -452.84375 C 299.101562 -450.269531 300.390625 -446.625 300.390625 -441.90625 C 300.390625 -437.195312 299.851562 -432.375 298.78125 -427.4375 C 297.71875 -422.507812 296.753906 -418.972656 295.890625 -416.828125 C 296.753906 -419.398438 297.503906 -423.363281 298.140625 -428.71875 C 298.785156 -434.082031 298.894531 -439.335938 298.46875 -444.484375 C 298.039062 -449.628906 296.109375 -452.628906 292.671875 -453.484375 C 286.671875 -455.203125 280.5625 -452.953125 274.34375 -446.734375 C 268.125 -440.515625 263.515625 -435.476562 260.515625 -431.625 C 247.222656 -414.46875 236.5 -395.273438 228.34375 -374.046875 C 220.195312 -352.816406 212.695312 -332.125 205.84375 -311.96875 C 192.113281 -270.375 180.101562 -228.132812 169.8125 -185.25 C 159.519531 -142.375 146.226562 -100.566406 129.9375 -59.828125 C 151.375 -66.253906 173.023438 -71.929688 194.890625 -76.859375 C 216.765625 -81.796875 238.851562 -84.910156 261.15625 -86.203125 C 268.445312 -86.628906 275.953125 -86.734375 283.671875 -86.515625 C 291.390625 -86.304688 298.679688 -85.769531 305.546875 -84.90625 Z M 169.8125 -364.71875 C 166.382812 -353.570312 162.953125 -342.421875 159.515625 -331.265625 C 156.085938 -320.117188 152.875 -308.972656 149.875 -297.828125 C 152.445312 -306.398438 155.234375 -314.546875 158.234375 -322.265625 C 161.242188 -329.984375 164.25 -337.703125 167.25 -345.421875 C 172.394531 -356.578125 177.539062 -368.691406 182.6875 -381.765625 C 187.832031 -394.847656 193.617188 -407.820312 200.046875 -420.6875 C 206.484375 -433.550781 214.3125 -444.695312 223.53125 -454.125 C 232.75 -463.5625 243.789062 -469.78125 256.65625 -472.78125 C 246.363281 -470.644531 237.25 -466.679688 229.3125 -460.890625 C 221.382812 -455.097656 213.988281 -447.484375 207.125 -438.046875 C 198.976562 -426.898438 191.898438 -415.210938 185.890625 -402.984375 C 179.890625 -390.765625 174.53125 -378.007812 169.8125 -364.71875 Z M 203.90625 -314.546875 L 203.90625 -315.1875 C 201.332031 -307.46875 198.757812 -299.851562 196.1875 -292.34375 C 193.613281 -284.84375 191.253906 -277.234375 189.109375 -269.515625 L 203.90625 -313.90625 L 203.90625 -315.1875 Z M 63.6875 45.03125 L 64.328125 44.390625 C 63.898438 44.390625 63.6875 44.492188 63.6875 44.703125 C 63.6875 44.921875 63.6875 45.03125 63.6875 45.03125 Z M 63.6875 45.03125 "/></g></g></g><g fill="#ffb400" fill-opacity="1"><g transform="translate(623.607202, 590.229023)"><g><path d="M 477.9375 108.703125 C 480.082031 107.847656 483.726562 106.238281 488.875 103.875 C 494.019531 101.519531 498.945312 99.695312 503.65625 98.40625 C 508.375 97.125 510.953125 98.203125 511.390625 101.640625 C 512.242188 105.066406 511.0625 109.03125 507.84375 113.53125 C 504.625 118.03125 500.976562 122.207031 496.90625 126.0625 C 492.832031 129.925781 489.722656 132.929688 487.578125 135.078125 C 476.429688 144.085938 464 150.304688 450.28125 153.734375 C 436.125 157.597656 423.578125 157.171875 412.640625 152.453125 C 401.703125 147.734375 391.734375 139.582031 382.734375 128 C 370.296875 111.707031 362.253906 94.769531 358.609375 77.1875 C 354.960938 59.601562 354.210938 41.59375 356.359375 23.15625 C 358.503906 4.71875 362.148438 -13.503906 367.296875 -31.515625 C 367.296875 -31.515625 367.507812 -33.765625 367.9375 -38.265625 C 368.363281 -42.773438 369.222656 -45.457031 370.515625 -46.3125 C 370.515625 -45.882812 370.40625 -44.597656 370.1875 -42.453125 C 369.976562 -40.304688 369.65625 -38.59375 369.21875 -37.3125 L 372.4375 -48.890625 C 372.4375 -48.460938 372.007812 -48.25 371.15625 -48.25 C 370.300781 -52.101562 371.160156 -57.242188 373.734375 -63.671875 C 376.304688 -70.109375 378.234375 -75.039062 379.515625 -78.46875 L 393.671875 -110.640625 C 397.953125 -120.078125 401.914062 -129.40625 405.5625 -138.625 C 409.207031 -147.84375 412.75 -157.171875 416.1875 -166.609375 C 419.613281 -177.328125 424.003906 -187.722656 429.359375 -197.796875 C 434.722656 -207.878906 439.765625 -217.847656 444.484375 -227.703125 C 445.335938 -228.992188 447.050781 -232.425781 449.625 -238 C 452.195312 -243.570312 454.769531 -248.929688 457.34375 -254.078125 C 459.914062 -259.222656 461.632812 -261.582031 462.5 -261.15625 C 462.5 -261.15625 462.066406 -259.867188 461.203125 -257.296875 C 460.347656 -254.722656 460.132812 -253.222656 460.5625 -252.796875 C 462.707031 -258.367188 464.851562 -263.941406 467 -269.515625 C 469.144531 -275.097656 471.070312 -280.675781 472.78125 -286.25 L 468.28125 -277.234375 C 468.28125 -280.242188 469.242188 -284.101562 471.171875 -288.8125 C 473.109375 -293.53125 474.394531 -298.035156 475.03125 -302.328125 C 475.675781 -306.617188 473.640625 -309.191406 468.921875 -310.046875 C 463.347656 -311.328125 457.128906 -309.070312 450.265625 -303.28125 C 443.410156 -297.5 438.269531 -292.894531 434.84375 -289.46875 C 420.257812 -276.164062 407.070312 -262.007812 395.28125 -247 C 383.488281 -232 372.015625 -216.347656 360.859375 -200.046875 C 355.285156 -192.328125 349.925781 -184.710938 344.78125 -177.203125 C 339.632812 -169.703125 333.628906 -162.523438 326.765625 -155.671875 C 322.484375 -151.804688 318.835938 -146.765625 315.828125 -140.546875 C 312.828125 -134.328125 309.613281 -128.644531 306.1875 -123.5 C 300.613281 -114.070312 295.144531 -104.742188 289.78125 -95.515625 C 284.425781 -86.296875 278.957031 -77.1875 273.375 -68.1875 C 269.519531 -61.320312 265.234375 -54.566406 260.515625 -47.921875 C 255.796875 -41.273438 252.148438 -34.304688 249.578125 -27.015625 C 247.429688 -21.015625 245.070312 -15.65625 242.5 -10.9375 C 239.925781 -6.21875 236.601562 -3.644531 232.53125 -3.21875 C 228.457031 -2.789062 222.988281 -5.578125 216.125 -11.578125 C 206.695312 -21.015625 201.335938 -31.628906 200.046875 -43.421875 C 198.765625 -55.210938 199.410156 -67.113281 201.984375 -79.125 C 209.273438 -115.570312 221.492188 -151.269531 238.640625 -186.21875 C 255.796875 -221.164062 273.59375 -254.296875 292.03125 -285.609375 C 300.175781 -299.328125 307.679688 -313.582031 314.546875 -328.375 C 321.410156 -343.175781 327.628906 -357.863281 333.203125 -372.4375 C 334.054688 -375.007812 335.234375 -378.222656 336.734375 -382.078125 C 338.242188 -385.941406 337.710938 -388.304688 335.140625 -389.171875 C 332.128906 -390.453125 327.515625 -389.054688 321.296875 -384.984375 C 315.078125 -380.910156 310.898438 -378.015625 308.765625 -376.296875 C 294.179688 -365.578125 280.882812 -353.140625 268.875 -338.984375 C 256.875 -324.835938 245.296875 -310.472656 234.140625 -295.890625 C 222.992188 -281.316406 212.164062 -266.304688 201.65625 -250.859375 C 191.15625 -235.421875 180.757812 -219.769531 170.46875 -203.90625 C 159.738281 -187.613281 149.117188 -171.101562 138.609375 -154.375 C 128.109375 -137.65625 117.710938 -120.929688 107.421875 -104.203125 C 102.703125 -96.054688 97.875 -88.015625 92.9375 -80.078125 C 88.007812 -72.148438 83.832031 -63.894531 80.40625 -55.3125 C 76.976562 -47.164062 73.757812 -39.019531 70.75 -30.875 C 67.75 -22.726562 64.535156 -14.367188 61.109375 -5.796875 C 59.390625 -0.640625 57.566406 5.363281 55.640625 12.21875 C 53.710938 19.082031 51.03125 24.875 47.59375 29.59375 C 43.3125 35.164062 37.628906 37.953125 30.546875 37.953125 C 23.472656 37.953125 17.148438 35.804688 11.578125 31.515625 C 6.859375 27.660156 3.640625 22.835938 1.921875 17.046875 C 0.210938 11.253906 -0.425781 5.359375 0 -0.640625 C 0.851562 -18.222656 4.492188 -36.234375 10.921875 -54.671875 C 17.359375 -73.117188 24.007812 -90.273438 30.875 -106.140625 C 37.738281 -122.429688 44.597656 -138.398438 51.453125 -154.046875 C 58.316406 -169.703125 64.75 -185.679688 70.75 -201.984375 C 83.1875 -235.429688 97.125 -268.554688 112.5625 -301.359375 C 128 -334.171875 140.4375 -367.941406 149.875 -402.671875 L 149.875 -396.234375 L 153.734375 -420.046875 C 155.023438 -427.765625 154.914062 -434.625 153.40625 -440.625 C 151.90625 -446.625 146.226562 -448.554688 136.375 -446.421875 C 129.507812 -444.703125 123.070312 -441.484375 117.0625 -436.765625 C 111.0625 -432.046875 105.703125 -426.898438 100.984375 -421.328125 C 89.410156 -409.316406 79.332031 -395.695312 70.75 -380.46875 C 62.175781 -365.25 54.890625 -349.707031 48.890625 -333.84375 C 47.597656 -330.84375 46.523438 -327.195312 45.671875 -322.90625 C 44.816406 -318.625 44.171875 -315.410156 43.734375 -313.265625 C 43.304688 -310.691406 43.195312 -308.222656 43.40625 -305.859375 C 43.625 -303.503906 42.664062 -301.253906 40.53125 -299.109375 C 36.664062 -296.109375 32.800781 -295.460938 28.9375 -297.171875 C 25.082031 -298.890625 21.867188 -301.46875 19.296875 -304.90625 C 14.148438 -312.625 11.578125 -321.945312 11.578125 -332.875 C 11.578125 -343.8125 12.648438 -353.570312 14.796875 -362.15625 C 16.941406 -369.875 20.367188 -376.835938 25.078125 -383.046875 C 29.796875 -389.265625 33.660156 -395.804688 36.671875 -402.671875 C 37.523438 -404.816406 38.164062 -407.175781 38.59375 -409.75 C 39.019531 -412.320312 40.09375 -414.894531 41.8125 -417.46875 L 48.25 -426.46875 C 55.101562 -434.1875 62.390625 -441.476562 70.109375 -448.34375 C 85.117188 -460.78125 101.628906 -469.785156 119.640625 -475.359375 C 129.929688 -478.785156 140.332031 -480.175781 150.84375 -479.53125 C 161.351562 -478.894531 170.679688 -474.289062 178.828125 -465.71875 C 183.972656 -460.132812 188.046875 -453.054688 191.046875 -444.484375 C 194.046875 -435.910156 196.40625 -427.976562 198.125 -420.6875 C 200.269531 -410.820312 200.269531 -400.097656 198.125 -388.515625 C 195.976562 -376.941406 193.40625 -366.4375 190.40625 -357 C 187.40625 -347.570312 184.507812 -338.140625 181.71875 -328.703125 C 178.925781 -319.265625 175.816406 -309.828125 172.390625 -300.390625 C 169.390625 -291.390625 166.28125 -282.492188 163.0625 -273.703125 C 159.84375 -264.910156 156.519531 -256.015625 153.09375 -247.015625 C 150.519531 -240.148438 148.375 -233.285156 146.65625 -226.421875 C 144.945312 -219.554688 143.019531 -212.484375 140.875 -205.203125 C 157.59375 -231.359375 175.171875 -257.515625 193.609375 -283.671875 C 212.054688 -309.828125 232 -334.269531 253.4375 -357 C 257.726562 -361.289062 262.984375 -367.296875 269.203125 -375.015625 C 275.421875 -382.734375 282.390625 -390.453125 290.109375 -398.171875 C 297.828125 -405.890625 305.757812 -412.210938 313.90625 -417.140625 C 322.050781 -422.078125 330.195312 -424.4375 338.34375 -424.21875 C 346.5 -424.007812 354.003906 -419.613281 360.859375 -411.03125 C 369.003906 -401.164062 374.253906 -389.375 376.609375 -375.65625 C 378.972656 -361.9375 377.796875 -349.070312 373.078125 -337.0625 C 368.796875 -326.34375 363.113281 -315.941406 356.03125 -305.859375 C 348.957031 -295.785156 343.0625 -285.390625 338.34375 -274.671875 C 325.90625 -245.929688 312.929688 -217.410156 299.421875 -189.109375 C 285.921875 -160.804688 274.664062 -131.429688 265.65625 -100.984375 C 277.238281 -121.140625 289.140625 -141.082031 301.359375 -160.8125 C 313.578125 -180.539062 326.335938 -199.835938 339.640625 -218.703125 C 336.640625 -214.410156 333.316406 -209.90625 329.671875 -205.1875 C 326.023438 -200.476562 322.695312 -195.765625 319.6875 -191.046875 C 325.695312 -200.046875 330.953125 -207.976562 335.453125 -214.84375 C 339.953125 -221.707031 342.847656 -225.992188 344.140625 -227.703125 C 355.285156 -243.148438 366.96875 -258.269531 379.1875 -273.0625 C 391.414062 -287.851562 404.820312 -301.679688 419.40625 -314.546875 C 427.125 -321.835938 436.019531 -328.804688 446.09375 -335.453125 C 456.164062 -342.097656 466.78125 -345.421875 477.9375 -345.421875 C 491.226562 -345.847656 501.945312 -341.128906 510.09375 -331.265625 C 518.238281 -321.410156 523.382812 -310.476562 525.53125 -298.46875 C 528.96875 -280.03125 527.894531 -261.910156 522.3125 -244.109375 C 516.738281 -226.316406 509.445312 -209.054688 500.4375 -192.328125 C 491.4375 -175.609375 483.078125 -159.3125 475.359375 -143.4375 C 477.078125 -146.445312 478.578125 -147.953125 479.859375 -147.953125 C 479.859375 -147.953125 479.109375 -145.804688 477.609375 -141.515625 C 476.109375 -137.222656 474.175781 -132.179688 471.8125 -126.390625 C 469.457031 -120.609375 467.316406 -115.359375 465.390625 -110.640625 C 463.460938 -105.921875 462.285156 -103.132812 461.859375 -102.28125 C 457.992188 -93.269531 454.238281 -84.257812 450.59375 -75.25 C 446.945312 -66.25 443.195312 -57.460938 439.34375 -48.890625 C 432.476562 -32.160156 425.9375 -15.328125 419.71875 1.609375 C 413.5 18.546875 408.460938 35.804688 404.609375 53.390625 C 403.316406 58.960938 402.023438 65.394531 400.734375 72.6875 C 399.453125 79.976562 399.5625 86.945312 401.0625 93.59375 C 402.5625 100.238281 406.316406 105.273438 412.328125 108.703125 C 421.328125 113.421875 432.257812 115.351562 445.125 114.5 C 457.988281 113.644531 468.925781 111.710938 477.9375 108.703125 Z M 392.375 -84.265625 C 387.226562 -73.546875 383.15625 -62.929688 380.15625 -52.421875 C 377.15625 -41.921875 373.941406 -31.304688 370.515625 -20.578125 C 373.941406 -30.441406 377.582031 -40.09375 381.4375 -49.53125 C 385.300781 -58.96875 389.378906 -68.398438 393.671875 -77.828125 C 398.816406 -88.984375 404.175781 -100.671875 409.75 -112.890625 C 415.320312 -125.109375 419.179688 -137.007812 421.328125 -148.59375 C 423.046875 -152.445312 423.046875 -154.585938 421.328125 -155.015625 C 418.328125 -151.160156 415.96875 -145.585938 414.25 -138.296875 C 412.539062 -131.003906 410.613281 -125 408.46875 -120.28125 C 405.894531 -114.28125 403.320312 -108.273438 400.75 -102.265625 C 398.175781 -96.265625 395.382812 -90.265625 392.375 -84.265625 Z M 107.421875 -276.59375 C 101.847656 -263.300781 96.378906 -250.113281 91.015625 -237.03125 C 85.660156 -223.957031 80.410156 -210.554688 75.265625 -196.828125 C 81.265625 -211.410156 87.265625 -225.773438 93.265625 -239.921875 C 99.273438 -254.078125 105.707031 -268.019531 112.5625 -281.75 C 119.851562 -296.320312 125.960938 -311.113281 130.890625 -326.125 C 135.828125 -341.132812 140.226562 -356.144531 144.09375 -371.15625 C 142.375 -366.007812 140.546875 -360.96875 138.609375 -356.03125 C 136.679688 -351.101562 134.648438 -346.28125 132.515625 -341.5625 C 128.222656 -330.84375 124.144531 -320.015625 120.28125 -309.078125 C 116.425781 -298.140625 112.140625 -287.3125 107.421875 -276.59375 Z M 313.265625 -181.390625 C 310.265625 -176.242188 306.082031 -169.273438 300.71875 -160.484375 C 295.351562 -151.691406 290.523438 -143.863281 286.234375 -137 C 281.953125 -130.144531 279.382812 -126.71875 278.53125 -126.71875 C 278.53125 -126.71875 282.28125 -132.503906 289.78125 -144.078125 C 297.289062 -155.660156 305.117188 -168.097656 313.265625 -181.390625 Z M 411.03125 -304.25 C 406.75 -300.394531 402.675781 -296.429688 398.8125 -292.359375 C 394.957031 -288.285156 391.097656 -283.890625 387.234375 -279.171875 Z M 365.359375 0 C 366.648438 -2.570312 366.648438 -4.070312 365.359375 -4.5 C 363.648438 -1.925781 363.648438 -0.425781 365.359375 0 Z M 380.796875 -271.453125 L 382.734375 -273.375 L 383.375 -274.671875 L 384.015625 -275.3125 C 384.015625 -274.882812 383.90625 -274.671875 383.6875 -274.671875 C 383.476562 -274.671875 383.375 -274.671875 383.375 -274.671875 L 384.015625 -275.3125 L 385.3125 -276.59375 L 385.953125 -277.234375 L 387.234375 -279.171875 L 385.953125 -277.890625 C 385.523438 -277.453125 384.988281 -276.804688 384.34375 -275.953125 C 383.695312 -275.097656 382.945312 -274.023438 382.09375 -272.734375 L 382.09375 -273.375 Z M 314.546875 -183.328125 L 317.125 -186.546875 L 317.125 -187.1875 Z M 313.265625 -181.390625 C 314.117188 -182.253906 314.546875 -182.898438 314.546875 -183.328125 Z M 385.3125 -277.234375 C 385.738281 -277.234375 385.953125 -277.34375 385.953125 -277.5625 C 385.953125 -277.78125 385.953125 -277.890625 385.953125 -277.890625 Z M 385.3125 -277.234375 "/></g></g></g><g clip-path="url(#5b28d71ca6)"><path fill="#fff50e" d="M 562.367188 708.675781 C 562.769531 708.117188 564.027344 710.339844 565.894531 709.925781 C 564.757812 709.761719 563.402344 710.367188 562.265625 710.367188 C 562.199219 709.359375 562.234375 708.863281 562.367188 708.675781 Z M 620.9375 707.554688 C 622.074219 707.71875 622.667969 707.773438 623.050781 708.710938 L 623.050781 709.59375 Z M 774.378906 705.34375 C 773.40625 706.449219 777.085938 706.671875 776.167969 707.941406 C 772.8125 706.117188 775.464844 711.085938 771.726562 709.59375 C 770.863281 705.84375 772 706.671875 774.378906 705.34375 Z M 542.1875 705.234375 C 542.023438 706.394531 543.054688 707.882812 540.671875 707.882812 Z M 862.820312 705.015625 C 865.742188 705.953125 862.496094 706.558594 862.117188 707.496094 C 858.054688 707.496094 862.441406 705.953125 862.820312 705.015625 Z M 989.414062 703.453125 C 990.15625 703.71875 990.980469 704.074219 991.316406 703.800781 L 989.683594 704.960938 L 988.070312 703.691406 C 988.035156 703.027344 988.691406 703.191406 989.414062 703.453125 Z M 589.597656 703.304688 L 590.628906 706.558594 L 590.03125 706.503906 Z M 870.9375 702.585938 C 871.371094 703.523438 871.371094 704.132812 872.183594 704.738281 L 870.613281 706.007812 Z M 928.847656 702.035156 L 928.847656 703.246094 C 928.480469 703.578125 928.042969 703.246094 927.65625 703.578125 C 925.988281 702.917969 927.167969 701.980469 928.847656 702.035156 Z M 901.898438 701.648438 L 903.953125 701.980469 L 904.765625 702.640625 Z M 614.558594 701.144531 C 614.050781 701.039062 613.605469 701.453125 613.089844 703.027344 C 613.738281 704.628906 615.46875 702.917969 616.390625 702.363281 C 615.632812 701.867188 615.066406 701.246094 614.558594 701.144531 Z M 1006.351562 700.210938 L 1005.980469 701.097656 L 1003.542969 702.308594 Z M 908.339844 699.273438 L 908.824219 702.035156 L 907.203125 701.425781 Z M 1000.246094 699.109375 L 998.617188 702.144531 L 998.246094 701.207031 C 995.320312 699.714844 990.492188 703.746094 989.195312 699.714844 C 991.6875 700.984375 996.5625 699.273438 1000.246094 699.109375 Z M 895.636719 698.714844 C 896.351562 698.820312 897.296875 699.054688 898.214844 699.164062 C 897.730469 699.328125 897.351562 699.550781 897.351562 700.046875 L 894.480469 699.054688 C 894.453125 698.640625 894.929688 698.613281 895.636719 698.714844 Z M 945.464844 697.730469 C 945.078125 698.613281 945.515625 700.210938 943.078125 699.496094 L 943.078125 700.765625 L 940.976562 698.558594 Z M 742.121094 697.453125 L 743.3125 704.40625 C 741.960938 703.746094 740.933594 703.359375 738.984375 706.230469 Z M 955.324219 697.289062 C 954.9375 697.617188 957.425781 700.765625 959.476562 701.757812 L 959.914062 701.425781 C 962.132812 702.75 960.183594 703.691406 959.425781 704.296875 C 959.425781 703.46875 960.621094 702.695312 959.425781 702.363281 C 958.234375 702.035156 957.8125 702.917969 957.425781 703.25 C 956.398438 701.398438 955.675781 699.382812 955.324219 697.289062 Z M 862.929688 696.847656 C 863.414062 697.5625 862.546875 698.445312 861.355469 698.722656 C 860.167969 699 859.300781 698.390625 859.679688 697.453125 Z M 683.019531 696.789062 C 684.15625 697.839844 685.128906 698.28125 685.832031 697.453125 L 685.832031 697.34375 C 685.007812 696.773438 683.992188 696.574219 683.019531 696.789062 Z M 964.625 695.355469 C 962.183594 697.121094 963.867188 698.390625 962.671875 699.9375 C 959.761719 697.730469 963.007812 696.515625 964.625 695.355469 Z M 913.210938 695.3125 C 913.546875 695.203125 913.722656 695.273438 913.585938 695.851562 C 913.011719 695.769531 912.429688 695.769531 911.855469 695.851562 C 912.371094 695.714844 912.871094 695.425781 913.210938 695.3125 Z M 975.675781 695.246094 L 971.234375 697.949219 L 970.425781 697.949219 Z M 1025.410156 694.914062 C 1025.242188 695.300781 1025.410156 697.671875 1024.332031 697.34375 C 1024.332031 697.949219 1023.574219 695.300781 1025.410156 694.914062 Z M 953.960938 694.472656 L 954.988281 694.75 L 953.589844 695.410156 Z M 910.503906 693.753906 C 911.164062 693.808594 911.476562 694.363281 911.097656 695.90625 L 911.421875 695.90625 C 909.582031 696.183594 907.796875 696.847656 907.796875 694.582031 C 908.824219 694.140625 909.839844 693.699219 910.503906 693.753906 Z M 958.03125 693.3125 C 957.273438 693.921875 957.695312 694.859375 957.695312 695.519531 L 954.988281 694.75 Z M 972.78125 692.859375 C 972.984375 692.816406 973.101562 692.953125 973.183594 693.148438 L 971.941406 693.644531 C 972.308594 693.121094 972.578125 692.898438 972.78125 692.859375 Z M 977.238281 692.816406 C 981.78125 692.597656 982.214844 695.410156 977.726562 695.632812 C 980.164062 694.417969 978.484375 693.753906 977.238281 692.816406 Z M 815.785156 692.484375 L 815.621094 698.058594 L 814.808594 698.058594 Z M 975.824219 692.097656 C 974.699219 692.871094 974.09375 693.921875 974.429688 692.816406 C 973.183594 695.078125 973.503906 693.808594 973.183594 693.148438 Z M 681.070312 690.554688 L 679.769531 692.761719 L 679.230469 692.042969 Z M 980.921875 690.441406 C 981.476562 690.570312 982.03125 690.644531 982.605469 690.664062 L 982.972656 691.105469 C 978.871094 691.601562 981.359375 692.042969 980.921875 690.441406 Z M 945.953125 690.386719 L 946.273438 691.328125 L 944.273438 691.710938 L 944.542969 691.710938 C 943.9375 692.515625 942.84375 692.769531 941.953125 692.320312 C 941.296875 692.429688 941.347656 692.210938 941.734375 691.710938 L 944.273438 691.710938 Z M 922.625 690.277344 C 924.628906 694.417969 925.871094 701.703125 923.167969 703.191406 C 922.710938 702.667969 922.113281 702.285156 921.453125 702.097656 C 919.550781 701.558594 917.582031 702.691406 917.050781 704.628906 C 916.238281 704.019531 917.429688 703.082031 917.429688 702.476562 L 914.183594 703.691406 C 913.640625 699.660156 919.757812 698.777344 918.457031 695.960938 C 920.136719 697.230469 919.378906 699.109375 923.003906 698.226562 C 925.433594 696.40625 920.460938 694.472656 919.59375 693.203125 C 922.625 692.097656 922.625 691.214844 922.625 690.277344 Z M 940.808594 689.835938 C 942.488281 689.890625 941.953125 691.328125 941.464844 691.878906 C 939.867188 691.773438 938.300781 691.417969 936.804688 690.828125 C 938.21875 690.949219 939.613281 690.601562 940.808594 689.835938 Z M 934.148438 689.558594 C 934.988281 690.082031 935.878906 690.507812 936.804688 690.828125 C 935.8125 690.851562 934.835938 691 933.878906 691.269531 C 937.613281 692.871094 930.582031 694.085938 935.996094 694.085938 C 933.996094 694.96875 934.855469 696.789062 931.558594 696.789062 C 930.09375 694.140625 932.851562 693.257812 933.878906 690.996094 C 932.164062 691.117188 930.414062 690.949219 928.75 690.5 Z M 951.859375 689.175781 C 952.800781 689.695312 953.488281 690.628906 953.691406 691.710938 L 952.664062 691.601562 Z M 932.214844 688.125 C 932.414062 687.519531 933.558594 688.734375 934.148438 689.558594 C 933.457031 689.140625 932.820312 688.660156 932.214844 688.125 Z M 975.1875 687.847656 C 974.363281 688.457031 976.429688 688.789062 976.851562 689.726562 L 974.429688 690.941406 C 973.117188 689.339844 972.695312 688.402344 975.1875 687.847656 Z M 960.03125 687.792969 C 960.03125 689.0625 961.648438 689.726562 962.519531 690.332031 L 960.722656 691.160156 C 960.621094 690.113281 960.03125 688.621094 960.03125 687.792969 Z M 883.925781 687.738281 C 883.601562 688.347656 882.683594 688.347656 881.65625 688.125 C 882.410156 688.730469 882.683594 689.230469 883.925781 688.730469 Z M 925.214844 687.574219 C 926.160156 688.941406 927.402344 690.058594 928.847656 690.828125 L 927.773438 690.828125 L 928.09375 690.71875 L 922.679688 690.058594 C 922.84375 689.339844 923.277344 688.511719 925.214844 687.574219 Z M 878.644531 686.730469 C 878.554688 686.691406 878.894531 686.855469 879.921875 687.40625 L 879.921875 687.296875 C 879.246094 687.019531 878.730469 686.773438 878.644531 686.730469 Z M 916.617188 686.359375 L 916.238281 688.566406 L 914.996094 687.574219 Z M 922.734375 686.136719 L 921.976562 688.621094 L 919.972656 689.503906 Z M 905.957031 685.808594 C 905.144531 685.808594 905.578125 686.523438 905.578125 687.351562 C 904.980469 686.691406 904.128906 686.328125 903.25 686.359375 Z M 891.613281 685.808594 L 893.238281 685.808594 C 893.238281 685.808594 893.5625 686.195312 893.5625 686.195312 C 892.941406 685.945312 892.28125 685.8125 891.613281 685.808594 Z M 951.742188 685.144531 L 950.175781 686.964844 L 948.929688 687.90625 Z M 889.984375 684.941406 C 890.417969 684.800781 890.652344 684.953125 890.367188 685.640625 C 889.933594 684.703125 890.042969 688.179688 889.230469 687.519531 C 885.578125 688.429688 888.683594 685.367188 889.984375 684.941406 Z M 853.671875 684.097656 C 855.113281 684.355469 856.484375 684.941406 857.675781 685.808594 L 857.113281 686.476562 L 856.65625 686.492188 L 856.0625 686.316406 C 855.347656 685.863281 854.511719 684.953125 853.671875 684.097656 Z M 943.632812 683.101562 C 942.320312 683.984375 944.8125 685.308594 943.632812 686.855469 C 942.355469 685.597656 940.503906 685.132812 938.804688 685.640625 C 940.152344 684.363281 941.816406 683.484375 943.632812 683.101562 Z M 288.398438 681.667969 L 289.101562 685.253906 C 288.667969 684.425781 287.585938 684.8125 287.046875 684.980469 Z M 291.160156 679.847656 L 293.648438 680.894531 L 292.78125 681.667969 Z M 443.140625 679.570312 C 442.652344 680.289062 442.164062 681.003906 444.003906 680.289062 Z M 772.4375 677.203125 C 773.042969 677.167969 774.5 679.488281 775.839844 681.0625 C 774.910156 680.402344 773.730469 680.21875 772.648438 680.5625 L 772.160156 678.136719 C 772.132812 677.488281 772.238281 677.214844 772.4375 677.203125 Z M 619.910156 675.101562 C 622.777344 675.484375 620.9375 678.355469 621.695312 680.234375 C 625.972656 679.515625 621.371094 672.5625 626.785156 676.039062 C 626.082031 676.425781 624.835938 676.699219 625.320312 677.195312 C 627.484375 677.914062 631.277344 687.683594 633.441406 685.808594 L 632.089844 684.261719 C 636.144531 682.164062 641.398438 691.105469 642.152344 685.585938 L 641.828125 682.9375 C 648.648438 686.578125 644.753906 681.945312 651.679688 685.144531 L 651.679688 685.585938 C 654.710938 685.144531 656.28125 688.457031 657.851562 684.261719 L 656.824219 683.65625 C 659.480469 683.535156 662.144531 683.667969 664.777344 684.039062 C 665.210938 683.710938 667.105469 683.101562 667.59375 684.039062 C 668.027344 680.507812 676.6875 682.882812 678.417969 682.882812 C 675.386719 683.324219 676.738281 684.867188 677.605469 686.359375 C 679.339844 683.488281 680.582031 683.214844 683.019531 685.367188 C 683.558594 681.003906 684.101562 676.203125 688.972656 676.203125 C 688.214844 676.808594 687.078125 677.140625 687.511719 678.082031 C 687.941406 679.019531 689.132812 678.023438 689.515625 677.75 C 690 678.632812 688.375 679.292969 688.917969 680.839844 C 692.597656 676.753906 694.871094 680.675781 699.742188 679.347656 C 697.957031 680.617188 699.253906 681.503906 699.742188 683.046875 C 700.230469 678.082031 706.183594 687.574219 704.507812 681.0625 C 713.488281 685.367188 728.050781 682.273438 731.570312 686.578125 C 732.648438 688.402344 735.355469 685.53125 736.980469 685.53125 L 736.980469 687.683594 C 741.6875 683.875 740.660156 686.359375 746.074219 682.550781 C 743.746094 685.089844 744.664062 686.304688 746.832031 688.402344 L 750.671875 684.039062 L 751.269531 687.40625 C 752.769531 686.496094 754.640625 686.496094 756.140625 687.40625 C 755.328125 687.40625 755.816406 687.683594 755.816406 688.289062 C 756.789062 683.65625 763.390625 684.484375 764.476562 682.273438 C 765.828125 686.964844 768.804688 681.335938 769.886719 685.640625 C 770.46875 685.011719 771.167969 684.503906 771.945312 684.152344 C 771.242188 682.109375 771.023438 679.847656 772.484375 680.894531 L 772.8125 680.894531 L 773.351562 683.597656 C 774.671875 683.109375 776.058594 682.828125 777.464844 682.773438 C 776.910156 682.390625 776.417969 681.925781 776.003906 681.390625 C 776.652344 681.832031 777.195312 682.328125 777.789062 682.773438 L 781.199219 682.773438 C 786.285156 687.078125 793.429688 677.695312 798.84375 683.542969 C 797.976562 682.9375 796.734375 682.660156 796.355469 683.542969 C 801.277344 683.542969 805.988281 687.574219 809.128906 685.695312 L 809.128906 683.214844 C 812.148438 682.222656 815.320312 681.789062 818.492188 681.945312 L 818.492188 679.128906 C 822.875 680.289062 831.914062 676.3125 834.511719 682.164062 C 835.648438 680.011719 840.304688 683.101562 842.738281 682.496094 L 843.226562 684.703125 L 849.777344 684.390625 L 849.015625 683.820312 C 849.042969 683.796875 849.066406 683.773438 849.089844 683.753906 C 849.769531 683.15625 850.625 682.894531 851.453125 682.957031 C 852.28125 683.019531 853.085938 683.402344 853.671875 684.097656 L 850.203125 684.394531 L 854.707031 686.550781 L 856.65625 686.492188 L 857.011719 686.59375 L 857.113281 686.476562 L 861.433594 686.34375 C 863.632812 685.976562 865.769531 685.558594 867.800781 685.808594 L 867.800781 686.359375 L 873.210938 685.144531 C 871.640625 687.019531 874.402344 683.875 876.023438 684.484375 C 878.339844 683.734375 880.867188 684.230469 882.734375 685.808594 L 886.632812 686.027344 C 882.410156 687.1875 886.632812 689.0625 886.632812 691.546875 L 889.070312 689.726562 C 889.828125 690.941406 887.390625 691.546875 889.070312 692.210938 C 890.640625 690.996094 895.1875 691.328125 896.753906 688.898438 C 896.476562 688.175781 896.007812 687.546875 895.402344 687.078125 C 895.652344 686.777344 895.890625 686.464844 896.105469 686.136719 C 898.917969 686.855469 897.890625 685.753906 897.890625 684.648438 C 900.867188 688.730469 902.871094 686.25 905.035156 690.941406 C 901.84375 685.585938 912.234375 691.382812 910.449219 686.359375 C 912.613281 690.441406 912.125 686.691406 913.425781 690.113281 C 910.125 688.84375 906.550781 692.210938 903.683594 693.699219 L 906.226562 696.238281 C 904.0625 700.542969 900.328125 694.195312 898.648438 695.578125 C 898.730469 695.527344 898.816406 695.488281 898.902344 695.449219 C 900.164062 694.898438 901.628906 695.5 902.167969 696.789062 L 901.679688 693.367188 C 897.945312 691.769531 894.75 694.195312 891.9375 695.6875 C 894.425781 696.957031 888.691406 697.507812 890.421875 700.046875 L 892.480469 700.046875 C 893.289062 701.261719 891.289062 702.199219 890.097656 703.082031 C 883.875 700.210938 872.074219 701.703125 869.964844 698.941406 C 871.578125 699.628906 873.429688 699.398438 874.835938 698.335938 L 871.96875 696.734375 C 874.347656 696.789062 876.132812 699.882812 879.761719 698.941406 C 879.488281 696.789062 882.085938 694.03125 879.488281 690.886719 C 872.832031 687.132812 873.535156 696.128906 865.363281 694.859375 C 864.550781 695.464844 867.257812 691.4375 862.820312 692.375 C 857.574219 693.675781 853.566406 698 852.589844 703.414062 C 854.917969 702.199219 859.789062 699.714844 860.328125 703.136719 C 857.894531 704.351562 853.886719 704.960938 853.5625 707.167969 C 851.34375 702.808594 858 706.226562 855.023438 702.808594 C 853.347656 702.808594 852.589844 704.019531 851.832031 704.628906 C 852.96875 703.082031 850.480469 701.867188 850.046875 700.929688 C 844.742188 700.597656 841.546875 698.667969 836.136719 698.058594 C 835.675781 697.199219 835.46875 696.222656 835.539062 695.246094 C 832.726562 696.183594 828.449219 701.8125 829.371094 704.296875 C 826.121094 704.296875 826.015625 702.421875 823.199219 703.359375 C 827.476562 707.113281 822.390625 702.75 821.738281 706.503906 C 818.871094 706.78125 820.816406 704.628906 819.574219 703.691406 C 818.714844 704.328125 818.085938 705.242188 817.789062 706.285156 C 816.164062 703.359375 821.46875 699 819.628906 695.578125 C 817.363281 693.140625 814.820312 690.992188 812.050781 689.175781 C 810.398438 695.914062 810.398438 702.964844 812.050781 709.707031 C 811.78125 711.914062 809.507812 707.222656 808.261719 706.945312 C 804.851562 703.191406 802.6875 709.429688 799.765625 707.882812 L 802.363281 705.898438 C 802.363281 704.960938 797.707031 705.898438 796.949219 707.167969 C 796.894531 705.898438 799.546875 700.929688 798.25 699.382812 C 792.800781 699.171875 788.09375 703.246094 787.421875 708.765625 L 795.8125 705.289062 C 795.8125 708.382812 789.589844 707.882812 789.914062 711.859375 L 782.445312 710.421875 C 783.363281 710.367188 786.34375 709.652344 785.257812 707.882812 C 782.011719 707.882812 783.582031 707.277344 781.472656 705.730469 C 786.6875 700.160156 791.332031 694.058594 795.328125 687.519531 L 791.320312 689.449219 L 790.402344 687.574219 C 784.988281 689.835938 779.898438 701.703125 778.65625 705.125 C 775.730469 704.1875 777.03125 697.671875 777.789062 696.402344 C 772.050781 695.851562 771.726562 705.511719 765.992188 704.296875 L 768.101562 705.84375 C 766.695312 705.84375 761.769531 704.574219 762.257812 705.84375 C 761.171875 704.296875 760.253906 699.828125 761.609375 698.777344 L 756.195312 704.738281 C 757.007812 704.132812 756.679688 698.832031 757.007812 697.894531 C 754.949219 697.617188 753.273438 703.855469 754.515625 704.792969 C 750.671875 700.765625 751.59375 702.917969 748.453125 698.28125 C 747.265625 698.613281 748.402344 703.910156 749.210938 704.519531 C 747.539062 705.503906 745.476562 705.503906 743.800781 704.519531 C 748.292969 702.363281 745.425781 692.652344 746.398438 688.675781 L 736.277344 704.132812 C 736.753906 702.039062 737.117188 699.917969 737.359375 697.785156 C 736.277344 702.476562 725.453125 702.695312 720.039062 701.867188 L 721.121094 701.867188 C 722.203125 700.378906 717.65625 698.777344 715.710938 700.378906 C 716.035156 699.441406 716.464844 699.714844 717.277344 699.714844 C 713.816406 696.074219 712.40625 706.671875 708.890625 702.421875 C 712.191406 702.972656 712.785156 701.09375 712.785156 699.21875 C 710.027344 700.820312 703.746094 698.832031 704.9375 704.351562 C 703.207031 703.136719 701.855469 703.800781 701.855469 700.984375 L 695.085938 704.132812 C 695.359375 703.859375 695.523438 703.496094 695.542969 703.109375 C 695.589844 702.257812 694.949219 701.527344 694.113281 701.480469 C 698.066406 702.308594 701.636719 697.289062 703.476562 700.929688 C 703.695312 697.5625 702.339844 695.6875 704.234375 692.816406 C 696.765625 694.25 692.652344 699.992188 688 703.855469 L 681.71875 701.207031 L 681.394531 702.75 L 680.417969 698.777344 C 679.554688 699.660156 679.066406 700.378906 678.902344 700.046875 C 678.742188 699.714844 678.960938 699.21875 679.285156 698.613281 C 678.664062 698.753906 678.097656 699.078125 677.660156 699.550781 C 677.78125 697.183594 678.570312 694.902344 679.933594 692.980469 L 681.609375 695.246094 C 682.910156 693.09375 683.882812 691.050781 682.152344 689.726562 L 681.339844 690.554688 C 682.152344 689.0625 682.695312 687.847656 682.152344 687.296875 L 676.738281 689.0625 C 677.636719 690.136719 678.453125 691.28125 679.175781 692.484375 C 676.035156 695.246094 672.519531 698.003906 675.171875 700.765625 L 671.542969 698.335938 C 668.898438 700.738281 665.832031 702.609375 662.503906 703.855469 C 662.019531 702.476562 663.480469 701.316406 662.503906 700.324219 C 658.554688 704.628906 653.195312 694.914062 652.277344 698.777344 C 648.921875 699.714844 650.921875 702.144531 648.921875 703.25 C 649.300781 702.808594 649.515625 701.867188 648.921875 701.867188 L 646.539062 704.628906 C 645.5625 703.578125 648.703125 702.695312 646.105469 701.425781 C 641.722656 703.46875 639.070312 704.847656 635.28125 703.46875 C 629.867188 704.019531 637.5 709.097656 632.953125 708.4375 C 632.304688 706.0625 631.761719 703.304688 628.949219 702.917969 C 627.378906 704.460938 627.59375 706.285156 624.996094 707.222656 L 624.996094 703.691406 C 622.617188 703.800781 620.773438 704.40625 620.773438 701.757812 C 619.652344 702.933594 617.894531 703.183594 616.5 702.363281 C 612.875 704.132812 618.988281 709.539062 619.636719 710.921875 C 616.175781 708.214844 613.738281 709.707031 611.789062 705.402344 L 615.144531 704.738281 C 608.542969 700.269531 608.761719 709.652344 605.78125 702.144531 C 608.058594 702.421875 610.816406 700.542969 609.460938 698.613281 L 606.160156 700.378906 C 605.78125 699.441406 608.058594 699.769531 606.542969 698.667969 C 605.160156 699.769531 603.890625 701.007812 602.75 702.363281 L 602.75 702.199219 L 596.796875 702.695312 C 597.933594 702.863281 598.207031 701.425781 597.070312 701.425781 L 593.171875 703.25 C 594.363281 702.363281 593.117188 701.261719 591.386719 700.652344 C 586.351562 699.441406 587.273438 708.546875 583.429688 704.960938 C 583.972656 705.015625 584.078125 704.628906 584.675781 704.628906 L 582.671875 703.027344 C 582.183594 710.535156 570.820312 703.691406 570.332031 711.195312 C 567.464844 707.941406 570.117188 709.152344 573.851562 705.675781 L 570.820312 703.46875 C 572.0625 703.191406 573.089844 703.800781 574.390625 703.25 C 570.441406 700.046875 566.652344 703.964844 564.488281 705.898438 C 562.917969 704.847656 565.675781 700.269531 561.347656 701.539062 C 555.175781 702.972656 562.484375 707 558.75 707.882812 L 556.042969 703.746094 C 551.332031 706.890625 547.816406 704.1875 543.863281 703.746094 C 543.207031 703.859375 542.636719 704.265625 542.296875 704.847656 C 538.019531 703.136719 533.417969 708.601562 530.226562 707.332031 C 530.984375 706.558594 528.386719 704.902344 528.003906 703.964844 L 522.269531 706.339844 C 524.8125 705.234375 524.703125 702.972656 525.136719 700.820312 C 523.351562 701.039062 522.484375 702.253906 521.292969 702.585938 C 521.835938 701.757812 522.757812 700.984375 521.835938 699.992188 L 515.773438 703.691406 C 516.265625 704.011719 516.820312 704.222656 517.398438 704.296875 C 515.882812 704.296875 512.632812 705.730469 510.46875 703.910156 C 510.6875 703.082031 511.605469 702.253906 511.605469 701.371094 C 513.394531 703.855469 514.421875 701.757812 515.394531 700.046875 C 511.171875 700.488281 514.3125 699.496094 512.308594 697.949219 C 511.929688 697.957031 511.550781 698.027344 511.1875 698.152344 C 509.296875 698.824219 508.296875 700.933594 508.953125 702.863281 C 506.363281 701.53125 503.246094 701.878906 501 703.746094 L 501.648438 700.710938 L 498.507812 701.703125 L 501.054688 697.949219 C 495.046875 695.960938 499.96875 703.191406 493.3125 701.480469 L 493.3125 698.832031 C 490.714844 699.882812 489.902344 704.351562 487.898438 701.207031 C 485.410156 702.808594 492.121094 704.902344 486.332031 705.511719 C 484.988281 704.097656 483.28125 703.101562 481.40625 702.640625 C 479.511719 703.855469 482.8125 705.789062 484.003906 705.402344 C 475.234375 706.726562 478.484375 696.292969 470.636719 699.882812 C 473.339844 701.757812 468.46875 704.902344 474.800781 704.902344 C 471.769531 706.503906 468.792969 701.152344 465.65625 704.074219 L 467.929688 700.652344 C 466.792969 700.597656 465.546875 701.867188 464.898438 702.253906 L 464.898438 699.660156 C 461 704.296875 457.535156 697.5625 455.316406 703.632812 C 456.886719 698.886719 452.394531 703.910156 450.824219 702.089844 C 453.964844 698.722656 460.082031 702.089844 460.40625 697.671875 C 459.648438 697.039062 458.945312 697.261719 458.246094 697.480469 L 456.316406 697.304688 L 455.398438 697.804688 C 455.292969 697.824219 455.453125 697.671875 456.074219 697.289062 L 456.128906 697.289062 C 457.277344 696.625 458.261719 695.699219 459 694.582031 C 453.910156 692.15625 451.148438 697.289062 448.171875 698.5 L 453.585938 697.398438 C 453.207031 701.648438 451.203125 698.171875 449.742188 701.648438 C 447.035156 699.328125 445.03125 702.75 442.816406 701.316406 C 443.410156 701.371094 443.464844 700.929688 444.003906 700.929688 C 438.59375 701.152344 436.96875 694.472656 434.695312 693.976562 C 432.421875 693.480469 428.148438 695.90625 429.769531 697.730469 C 427.929688 698.941406 437.457031 696.515625 434.207031 702.035156 C 431.015625 695.519531 427.445312 704.519531 420.191406 700.269531 C 423.277344 697.785156 418.242188 696.570312 421.058594 694.75 C 417.59375 695.355469 417.484375 696.292969 416.023438 698.226562 L 414.941406 696.183594 C 410.558594 700.875 413.964844 700.269531 407.203125 702.863281 C 409.472656 701.207031 404.441406 699.9375 406.117188 698.5 C 404.269531 698.390625 402.453125 699.046875 401.085938 700.324219 L 401.085938 699.992188 C 394.265625 701.207031 395.402344 697.5625 389.230469 699.992188 L 389.882812 701.207031 C 381.707031 704.628906 371.261719 702.863281 362.820312 704.628906 L 365.742188 705.789062 C 364.824219 704.902344 360.058594 707.609375 357.40625 705.789062 C 357.894531 705.621094 358.816406 705.234375 359.300781 705.234375 C 359.160156 703.394531 357.832031 701.878906 356.054688 701.539062 L 355.351562 703.632812 L 354.484375 702.035156 C 351.34375 702.089844 355.460938 705.125 352.371094 705.125 C 350.425781 699.21875 339.003906 704.792969 336.136719 699.605469 C 334.457031 704.074219 342.035156 700.046875 339.871094 704.074219 C 338.914062 703.160156 337.703125 702.5625 336.40625 702.363281 L 337.378906 704.738281 C 327.746094 703.523438 324.066406 701.480469 315.730469 702.363281 L 316.054688 701.921875 C 313.023438 701.039062 311.453125 701.59375 310.15625 703.910156 C 309.507812 702.695312 311.617188 701.980469 310.425781 700.929688 C 305.445312 707.882812 299.765625 696.460938 296.625 701.261719 C 296.84375 695.960938 289.75 691.160156 292.457031 686.964844 L 290.453125 687.628906 C 290.996094 684.152344 297.222656 687.296875 298.300781 683.597656 L 305.230469 687.019531 C 304.90625 685.695312 306.042969 683.710938 304.90625 683.324219 C 306.585938 683.15625 308.046875 682.9375 305.773438 681.117188 C 322.496094 689.339844 338.734375 680.121094 354.972656 684.425781 C 356.054688 684.097656 355.402344 682.882812 354.972656 682.054688 C 358.003906 685.199219 357.730469 680.234375 359.300781 679.679688 L 363.957031 684.425781 C 365.632812 682.9375 364.335938 681.503906 364.335938 680.507812 C 372.507812 679.292969 380.570312 683.765625 387.121094 680.785156 C 389.503906 682.441406 386.742188 684.703125 389.503906 685.253906 C 385.441406 680.289062 397.40625 682.714844 394.914062 679.238281 C 397.730469 684.484375 404.980469 680.121094 403.898438 687.574219 C 407.253906 687.90625 406.605469 684.371094 405.628906 683.710938 C 409.140625 684.292969 412.734375 683.503906 415.699219 681.503906 C 417.863281 683.101562 433.34375 679.292969 436.859375 684.8125 C 434.480469 681.335938 437.023438 682.9375 439.242188 681.335938 L 437.183594 678.191406 L 442.21875 678.578125 C 443.246094 678.136719 443.574219 678.246094 443.574219 678.578125 C 444.4375 678.6875 443.355469 680.398438 445.574219 681.171875 C 448.984375 681.335938 449.148438 679.570312 450.988281 677.914062 L 450.5 677.417969 L 452.828125 677.085938 C 454.558594 677.195312 446.984375 680.34375 452.394531 681.886719 C 452.503906 681.0625 455.75 676.753906 457.320312 679.074219 C 454.398438 678.90625 454.777344 681.117188 455.859375 682.054688 L 459.917969 682.054688 L 458.511719 678.023438 C 470.148438 678.082031 482.21875 680.894531 494.558594 680.5625 C 494.394531 684.261719 503.324219 680.839844 502.242188 686.082031 L 501.757812 685.585938 C 498.726562 686.082031 502.675781 689.671875 505.113281 689.0625 C 502.515625 687.40625 509.714844 683.820312 503.433594 683.101562 L 508.304688 680.617188 C 510.957031 670.628906 521.242188 681.335938 528.601562 678.191406 C 528.234375 678.496094 527.984375 678.929688 527.898438 679.40625 C 534.5 676.257812 542.621094 682.164062 544.136719 680.5625 L 544.730469 683.269531 C 550.304688 679.074219 550.957031 678.742188 557.667969 680.453125 C 557.667969 680.894531 556.640625 681.667969 557.667969 682.273438 C 559.285156 679.523438 562.4375 678.128906 565.515625 678.796875 L 565.515625 679.625 L 572.660156 679.292969 C 572.550781 687.683594 584.726562 674.214844 587.109375 683.378906 C 588.519531 680.949219 593.765625 680.234375 596.09375 679.074219 C 596.121094 679.515625 596.316406 679.933594 596.636719 680.234375 C 599.34375 675.707031 604.429688 681.722656 607.460938 681.226562 C 609.460938 680.175781 608.597656 678.6875 607.785156 677.253906 C 611.789062 680.894531 618.664062 673.445312 619.910156 675.101562 Z M 619.910156 675.101562 " fill-opacity="1" fill-rule="evenodd"/></g></svg>